<svg width="128" height="128" viewBox="0 0 128 128" fill="none" xmlns="http://www.w3.org/2000/svg">
<circle cx="64" cy="64" r="64" fill="white"/>
<mask id="mask0" style="mask-type:alpha" maskUnits="userSpaceOnUse" x="0" y="0" width="128" height="128">
<circle cx="64" cy="64" r="64" fill="white"/>
</mask>
<g mask="url(#mask0)">
<path fill-rule="evenodd" clip-rule="evenodd" d="M75.5397 30L66.9769 47.9135C66.6476 47.5236 66.5643 47.3073 66.1946 46.9471C64.8726 45.6245 63.3065 44.5658 61.5822 43.8283C59.8553 43.0788 57.9957 42.6992 56.0501 42.6992C53.1835 42.6992 50.5877 43.4525 48.2255 44.9542C45.8634 46.4564 44.1066 48.4913 42.946 51.051L27 86.2176L52.5684 98L61.1187 80.1427C61.4514 80.5565 61.4436 80.7373 61.8328 81.1156C63.1691 82.4454 64.7313 83.4835 66.5044 84.2279C68.2931 84.9877 70.1586 85.3602 72.1211 85.3602C74.9688 85.3602 77.5334 84.5914 79.8057 83.0394C82.0859 81.4965 83.8342 79.4422 85.0859 76.8825L101 41.7366L75.5397 30Z" fill="#276DF6"/>
</g>
</svg>
