<svg width="128" height="128" viewBox="0 0 128 128" fill="none" xmlns="http://www.w3.org/2000/svg">
<rect width="128" height="128" rx="64" fill="white"/>
<path d="M99.9284 80.5835C99.9285 81.0147 99.8436 81.4418 99.6785 81.8402C99.5135 82.2387 99.2716 82.6007 98.9667 82.9057L84.2598 97.6126C83.4322 98.4402 82.0171 97.8538 82.0171 96.6836V63.729L99.7241 46.1212H99.9284V80.5835" fill="#E83860"/>
<path d="M88.1869 34.3851C88.0649 34.263 87.9201 34.1662 87.7607 34.1001C87.6013 34.034 87.4304 34 87.2579 34C87.0853 34 86.9145 34.034 86.7551 34.1001C86.5957 34.1662 86.4508 34.263 86.3289 34.3851L64.4603 56.2536H64.1567V80.9357L64.4603 81.5839L82.0114 64.0328L99.9228 46.1215L88.1869 34.3851Z" fill="#DFC586"/>
<path d="M29 80.5835C29 81.4547 29.3457 82.2896 29.9617 82.9057L44.6687 97.6126C45.4963 98.4402 46.9114 97.8538 46.9114 96.6836V63.729L29.2038 46.1212H29V80.5835" fill="#327787"/>
<path d="M42.5939 34.3853C42.4719 34.2633 42.3271 34.1665 42.1677 34.1005C42.0083 34.0345 41.8374 34.0005 41.6649 34.0005C41.4924 34.0005 41.3215 34.0345 41.1621 34.1005C41.0027 34.1665 40.8579 34.2633 40.7359 34.3853L29 46.1218L46.9114 64.0331L64.4625 81.5837V56.2539L42.5939 34.3853Z" fill="#8ABB9C"/>
</svg>
