<svg width="128" height="128" viewBox="0 0 128 128" fill="none" xmlns="http://www.w3.org/2000/svg">
<circle cx="64" cy="64" r="64" fill="white"/>
<path d="M43.737 73.1412C43.737 77.2136 40.3129 80.5403 36.1214 80.5403C31.9299 80.5403 28.5059 77.2136 28.5059 73.1412C28.5059 69.0689 31.9299 65.7422 36.1214 65.7422H43.737V73.1412Z" fill="#E01E5A"/>
<path d="M47.5762 73.141C47.5762 69.0688 51.0002 65.7422 55.1917 65.7422C59.3833 65.7422 62.8073 69.0688 62.8073 73.141V91.6665C62.8073 95.7387 59.3833 99.0653 55.1917 99.0653C51.0002 99.0653 47.5762 95.7387 47.5762 91.6665V73.141Z" fill="#E01E5A"/>
<path d="M55.1898 43.4322C50.9983 43.4322 47.5742 40.1057 47.5742 36.0335C47.5742 31.9613 50.9983 28.6348 55.1898 28.6348C59.3813 28.6348 62.8053 31.9613 62.8053 36.0335V43.4322H55.1898Z" fill="#36C5F0"/>
<path d="M55.1899 47.1606C59.3814 47.1606 62.8054 50.4871 62.8054 54.5591C62.8054 58.6311 59.3814 61.9575 55.1899 61.9575H36.1214C31.9299 61.9575 28.5059 58.6311 28.5059 54.5591C28.5059 50.4871 31.9299 47.1606 36.1214 47.1606H55.1899Z" fill="#36C5F0"/>
<path d="M85.7676 54.5581C85.7676 50.4861 89.1916 47.1597 93.3831 47.1597C97.5746 47.1597 100.999 50.4861 100.999 54.5581C100.999 58.6301 97.5746 61.9565 93.3831 61.9565H85.7676V54.5581Z" fill="#2EB67D"/>
<path d="M81.9303 54.5581C81.9303 58.6302 78.5063 61.9566 74.3148 61.9566C70.1233 61.9566 66.6992 58.6302 66.6992 54.5581V36.0332C66.6992 31.9612 70.1233 28.6348 74.3148 28.6348C78.5063 28.6348 81.9303 31.9612 81.9303 36.0332V54.5581Z" fill="#2EB67D"/>
<path d="M74.3148 84.2681C78.5063 84.2681 81.9304 87.5946 81.9304 91.6668C81.9304 95.739 78.5063 99.0655 74.3148 99.0655C70.1233 99.0655 66.6992 95.739 66.6992 91.6668V84.2681H74.3148Z" fill="#ECB22E"/>
<path d="M74.3148 80.5403C70.1233 80.5403 66.6992 77.2136 66.6992 73.1412C66.6992 69.0689 70.1233 65.7422 74.3148 65.7422H93.3832C97.5747 65.7422 100.999 69.0689 100.999 73.1412C100.999 77.2136 97.5747 80.5403 93.3832 80.5403H74.3148Z" fill="#ECB22E"/>
</svg>
