<svg width="128" height="128" viewBox="0 0 128 128" fill="none" xmlns="http://www.w3.org/2000/svg">
<rect width="128" height="128" rx="64" fill="#283B66"/>
<path fill-rule="evenodd" clip-rule="evenodd" d="M58.483 46.0553V86.637L55.5945 88V64.6816L16.6878 82.8518L15.4722 80.2778L55.5989 61.4996V57.5626L13.9517 76.944L12.7361 74.37L55.5989 54.5327V50.4437L11.2156 71.1926L10 68.6186L58.483 46.0553ZM64.8704 43.0254V83.759L62.1343 84.9702V44.3884L64.8704 43.0254ZM71.4055 40V63.3184L110.317 45.1481L111.532 47.7222L71.4055 66.5004V70.4374L113.053 51.0559L114.268 53.63L71.4055 73.6192V77.5562L115.785 56.8118L117 59.3859L68.517 81.9492V41.3675L71.4055 40Z" fill="#889DBC"/>
</svg>
