<svg width="128" height="128" viewBox="0 0 128 128" fill="none" xmlns="http://www.w3.org/2000/svg">
<circle cx="64" cy="64" r="64" fill="white"/>
<g filter="url(#filter0_i)">
<path d="M93.3077 91.5341L91.3686 93.9207L99.6267 100.517L101.294 98.6915L96.9465 95.1831L102.676 96.8665L103.783 95.4626L100.819 90.1292L105.166 93.6376L106.83 91.6722L98.5715 85.0764L96.9076 87.0418L100.327 93.6384L93.3077 91.5341Z" fill="url(#paint0_linear)"/>
<path fill-rule="evenodd" clip-rule="evenodd" d="M31.9339 93.3341C30.4006 94.5972 28.2607 94.175 26.9439 92.4893L26.066 91.3655L23.2739 93.4706L21.6666 91.504L29.9042 85.3291L32.3894 88.4195C33.7029 89.9647 33.4672 92.071 31.9339 93.3341ZM30.3234 91.227C30.7398 90.8059 30.869 90.2443 30.43 89.6824L29.5522 88.5586L27.8769 89.8217L28.7547 90.9455C29.1937 91.5074 29.907 91.6481 30.3234 91.227Z" fill="url(#paint1_linear)"/>
<path d="M33.0912 100.717L38.0981 94.531L36.0669 92.9896L29.5287 101.003L35.1913 105.487L36.7225 103.66L33.0912 100.717Z" fill="url(#paint2_linear)"/>
<path fill-rule="evenodd" clip-rule="evenodd" d="M42.0948 107.795L45.5489 109.337L45.5826 110.881L48.0298 112.002L48.3581 100.913L46.4871 100.072L38.5319 107.798L40.9792 108.919L42.0948 107.795ZM45.7207 104.143L45.6425 107.091L43.6289 106.25L45.7207 104.143Z" fill="url(#paint3_linear)"/>
<path d="M57.0888 106.13L59.9527 106.688L60.3319 104.442L52.0252 102.766L51.649 105.152L54.513 105.711L53.1115 113.431L55.6873 113.85L57.0888 106.13Z" fill="url(#paint4_linear)"/>
<path d="M69.3455 106.553L69.1524 104.165L62.5873 104.459L63.2317 114.712L65.8 114.567L65.5802 110.915L69.1485 110.767L68.9554 108.38L65.3871 108.527L65.3487 106.701L69.3455 106.553Z" fill="url(#paint5_linear)"/>
<path fill-rule="evenodd" clip-rule="evenodd" d="M79.3319 112.439C82.3014 111.596 83.6618 108.788 82.7423 105.841C81.6805 102.893 78.8033 101.49 75.9761 102.333C73.0066 103.175 71.6462 105.983 72.5657 108.93C73.4852 111.878 76.3624 113.281 79.3319 112.439ZM78.5704 110.193C77.0145 110.614 75.4304 109.772 74.9691 108.228C74.5078 106.684 75.1849 105.14 76.5985 104.719C78.1544 104.297 79.7384 105.139 80.1997 106.683C80.8033 108.227 80.1262 109.771 78.5704 110.193Z" fill="url(#paint6_linear)"/>
<path fill-rule="evenodd" clip-rule="evenodd" d="M89.4822 103.271L93.5071 105.237L96.0312 103.693L91.2923 101.587C91.8387 100.604 91.6712 99.4814 90.935 98.3583C89.7629 96.814 87.6241 96.5329 86.2247 97.5154L82.8635 99.761L88.8855 108.325L90.9863 106.921L88.7809 103.692L89.4822 103.271ZM88.5849 101.306L87.4634 102.008L86.2881 100.323L87.4095 99.6212C87.8297 99.3405 88.5436 99.481 88.8375 99.9022C89.2735 100.323 89.005 101.025 88.5849 101.306Z" fill="url(#paint7_linear)"/>
<path d="M42.4831 70.5176C45.3988 80.1827 54.3369 86.6625 64.5949 86.6903C65.5737 86.6687 66.5505 86.5952 67.5214 86.47C71.1953 85.9802 74.6953 84.606 77.721 82.4654C77.9243 82.3237 77.9736 82.2174 77.8365 81.9817C76.2695 79.2965 74.7159 76.6062 73.1757 73.9108C73.0294 73.6567 72.9446 73.6875 72.7398 73.8415C68.7228 76.9559 64.3069 77.6813 59.5614 75.8592C53.5822 73.5627 50.1936 67.0829 51.5999 60.8187C52.2371 57.9527 53.8145 55.3822 56.0811 53.5161C58.3477 51.65 61.1732 50.5956 64.1082 50.5206C64.2059 50.5309 64.3043 50.5086 64.3879 50.457C64.4716 50.4055 64.5357 50.3276 64.5703 50.2356C65.9658 47.2948 67.3679 44.358 68.7767 41.4254C68.9015 41.1666 68.8984 41.0804 68.578 41.0218C65.7136 40.4863 62.7725 40.5104 59.9172 41.0927C54.8128 42.1354 50.4709 44.5721 47.1039 48.5475C41.6267 55.0166 40.048 62.419 42.4831 70.5176Z" fill="url(#paint8_linear)"/>
<path d="M80.3482 79.7902C80.3913 79.8797 80.4349 79.9702 80.5296 80.021C80.6137 79.9977 80.6464 79.93 80.6781 79.8644C80.6882 79.8435 80.6982 79.8228 80.7098 79.8038C82.4965 76.7018 84.2898 73.5966 86.0899 70.4884C86.1452 70.4061 86.1735 70.3086 86.1707 70.2095C86.168 70.1103 86.1343 70.0145 86.0745 69.9355C84.2826 66.8498 82.499 63.7601 80.7236 60.6662C80.6777 60.565 80.6011 60.4807 80.5046 60.4254C80.4081 60.3702 80.2967 60.3466 80.1861 60.3582C76.6281 60.3674 73.0691 60.3674 69.5091 60.3582C69.3979 60.3466 69.2858 60.37 69.1886 60.4252C69.0914 60.4805 69.0138 60.5647 68.9669 60.6662C67.1987 63.7344 65.4315 66.8026 63.6654 69.8708C63.5753 69.9695 63.5267 70.0991 63.5298 70.2327H63.9626C65.122 70.2327 66.2812 70.2339 67.4403 70.2351C69.7583 70.2375 72.0763 70.2399 74.3947 70.2327C74.5316 70.2171 74.6698 70.2447 74.7902 70.3115C74.9106 70.3783 75.0071 70.4811 75.0663 70.6055C76.8057 73.6408 78.5514 76.673 80.3031 79.7022C80.3194 79.7304 80.3338 79.7603 80.3482 79.7902Z" fill="url(#paint9_linear)"/>
<path d="M72.3995 46.8024C71.9912 46.3907 71.5922 45.9885 71.1839 45.5903C71.0182 45.43 71.097 45.3056 71.1741 45.1839C71.1813 45.1726 71.1885 45.1613 71.1955 45.1499C71.1999 45.1427 71.2043 45.1355 71.2085 45.1282C71.9135 43.9006 73.0614 42.9891 74.4168 42.5806C75.2382 42.3096 76.1073 42.2134 76.968 42.2983C77.8288 42.3832 78.6623 42.6472 79.415 43.0735C82.1874 44.5722 81.9394 48.0485 80.3391 49.6196C79.7324 50.2038 79.0451 50.6981 78.2983 51.0874C78.0771 51.2051 77.856 51.3208 77.6352 51.4364C77.0871 51.7232 76.5413 52.0089 76.0033 52.3196C75.3764 52.6785 74.8882 53.1745 74.6617 53.8922C74.5693 54.1818 74.6248 54.2573 74.9344 54.2542C75.9525 54.248 76.971 54.248 77.9896 54.248C79.0083 54.248 80.0272 54.248 81.0461 54.2419C81.3541 54.2419 81.4696 54.3004 81.4573 54.6362C81.4296 55.3555 81.4404 56.0763 81.4573 56.7925C81.4573 57.0205 81.3942 57.1006 81.1601 57.1006C77.8855 57.0944 74.6119 57.0944 71.3394 57.1006C71.1854 57.1006 71.0422 57.1006 71.0406 56.8772C71.0406 54.61 71.4596 52.4983 73.2339 50.881C74.0791 50.1326 75.0279 49.5101 76.051 49.0327L76.1879 48.966C76.7034 48.7151 77.2184 48.4644 77.6683 48.0994C78.0965 47.7513 78.3922 47.3292 78.423 46.7593C78.4692 45.8675 77.7638 45.2052 76.698 45.1359C75.1654 45.0266 74.0595 45.7166 73.2863 46.9981C73.2349 47.0824 73.1862 47.1681 73.1279 47.2708C73.0989 47.3219 73.0675 47.3772 73.0322 47.4386C72.8173 47.2238 72.607 47.0117 72.3995 46.8024Z" fill="url(#paint10_linear)"/>
<path d="M61.0342 17.7403L59.4701 17.8816L59.1329 15.4958L60.697 15.3544C61.4094 15.354 62.131 15.7746 62.1464 16.4764C62.3042 17.1781 61.7466 17.7398 61.0342 17.7403Z" fill="url(#paint11_linear)"/>
<path d="M33.63 26.3777C33.1936 25.9567 32.6211 25.8164 32.2035 26.2376C31.7859 26.6587 31.7984 27.2201 32.0925 27.6411C32.3865 28.0622 33.0982 28.0621 33.519 27.7813C33.9366 27.3602 34.0664 26.7987 33.63 26.3777Z" fill="url(#paint12_linear)"/>
<path d="M74.3316 21.118L73.6848 17.6095L71.755 20.5581L74.3316 21.118Z" fill="url(#paint13_linear)"/>
<path d="M101.792 38.386C103.19 37.2629 103.437 35.5783 102.413 34.3149L101.531 33.0516L96.6335 36.7017L97.5153 37.9651C98.5394 39.2284 100.392 39.3687 101.792 38.386Z" fill="url(#paint14_linear)"/>
<path fill-rule="evenodd" clip-rule="evenodd" d="M6.39844 63.9027C6.39844 31.7404 32.3462 5.59961 64.2949 5.59961C96.2436 5.59961 122.191 31.7404 122.191 63.9027C122.191 96.0651 96.2436 122.206 64.2949 122.206C32.3462 122.206 6.39844 96.0651 6.39844 63.9027ZM120.535 66.451L99.192 66.451C97.9706 84.747 82.9235 99.2614 64.2985 99.2614C45.8501 99.2614 30.7062 84.8124 29.4143 66.451H8.05445C9.38056 96.5604 34.0881 120.606 64.2949 120.606C94.5018 120.606 119.209 96.5604 120.535 66.451ZM64.2985 30.2859C45.7626 30.2859 30.925 45.3583 30.925 63.9028C30.925 82.589 45.9032 97.6614 64.2985 97.6614C82.8345 97.6614 97.6721 82.589 97.6721 64.0445C97.6721 45.4956 82.8303 30.2859 64.2985 30.2859ZM60.7923 19.7054L63.4399 23.4933L66.1438 23.3513L63.0627 19.2829C64.0477 18.7209 64.593 17.5977 64.4229 16.3346C64.2435 14.6505 62.5031 13.248 60.7965 13.3894L56.8133 13.6726L57.7501 23.9179L60.0266 23.7761L59.6556 19.8464L60.7923 19.7054ZM45.8686 28.0331L44.0399 29.1574L40.0538 22.8451L38.9714 25.5126L37.6396 23.2681L39.1344 19.8985L40.2595 19.1958L45.8686 28.0331ZM31.4699 25.2552C30.4923 26.0974 30.3813 27.501 31.2572 28.4834C32.1332 29.4658 33.5597 29.6059 34.5373 28.7637C35.5148 27.9214 35.6259 26.5178 34.7499 25.5354C33.874 24.5531 32.4475 24.4129 31.4699 25.2552ZM29.8394 35.5861L22.4363 35.3048L21.3297 36.7087L29.8606 42.8872L31.1031 41.2024L26.185 37.5515L33.5881 37.8329L34.6947 36.4289L26.1638 30.2504L24.9213 31.9352L29.8394 35.5861ZM74.8021 23.0828L70.7948 22.2429L69.8314 23.7874L67.5428 23.3676L73.6078 14.1006L75.3266 14.5207L77.5612 25.4673L75.1301 25.0476L74.8021 23.0828ZM85.5087 20.2955L88.3876 21.556L89.2005 19.5903L81.5679 16.0887L80.7551 18.0543L83.4914 19.315L80.0883 26.7567L82.1057 27.7373L85.5087 20.2955ZM98.2092 26.3901L96.9652 28.0749L93.635 25.5493L92.5273 26.9533L95.4242 29.1983L94.1803 30.883L91.2834 28.6381L89.8971 30.3229L93.2273 32.8485L91.9834 34.5332L86.7683 30.4642L93.1396 22.4614L98.2092 26.3901ZM95.8334 39.0882C97.733 41.3341 100.875 41.8955 103.253 40.0705C105.633 38.3858 105.849 35.2974 104.088 32.9111L101.892 30.1036L93.6367 36.2807L95.8334 39.0882Z" fill="url(#paint15_linear)"/>
</g>
<defs>
<filter id="filter0_i" x="6.39844" y="5.59961" width="115.793" height="119.606" filterUnits="userSpaceOnUse" color-interpolation-filters="sRGB">
<feFlood flood-opacity="0" result="BackgroundImageFix"/>
<feBlend mode="normal" in="SourceGraphic" in2="BackgroundImageFix" result="shape"/>
<feColorMatrix in="SourceAlpha" type="matrix" values="0 0 0 0 0 0 0 0 0 0 0 0 0 0 0 0 0 0 127 0" result="hardAlpha"/>
<feOffset dy="3"/>
<feGaussianBlur stdDeviation="5"/>
<feComposite in2="hardAlpha" operator="arithmetic" k2="-1" k3="1"/>
<feColorMatrix type="matrix" values="0 0 0 0 1 0 0 0 0 1 0 0 0 0 1 0 0 0 0.25 0"/>
<feBlend mode="normal" in2="shape" result="effect1_innerShadow"/>
</filter>
<linearGradient id="paint0_linear" x1="48.7984" y1="7.99961" x2="85.1984" y2="118.4" gradientUnits="userSpaceOnUse">
<stop offset="0.0227867" stop-color="#8991D9"/>
<stop offset="0.494653" stop-color="#968ED9"/>
<stop offset="1" stop-color="#C06ED0"/>
</linearGradient>
<linearGradient id="paint1_linear" x1="48.7984" y1="7.99961" x2="85.1984" y2="118.4" gradientUnits="userSpaceOnUse">
<stop offset="0.0227867" stop-color="#8991D9"/>
<stop offset="0.494653" stop-color="#968ED9"/>
<stop offset="1" stop-color="#C06ED0"/>
</linearGradient>
<linearGradient id="paint2_linear" x1="48.7984" y1="7.99961" x2="85.1984" y2="118.4" gradientUnits="userSpaceOnUse">
<stop offset="0.0227867" stop-color="#8991D9"/>
<stop offset="0.494653" stop-color="#968ED9"/>
<stop offset="1" stop-color="#C06ED0"/>
</linearGradient>
<linearGradient id="paint3_linear" x1="48.7984" y1="7.99961" x2="85.1984" y2="118.4" gradientUnits="userSpaceOnUse">
<stop offset="0.0227867" stop-color="#8991D9"/>
<stop offset="0.494653" stop-color="#968ED9"/>
<stop offset="1" stop-color="#C06ED0"/>
</linearGradient>
<linearGradient id="paint4_linear" x1="48.7984" y1="7.99961" x2="85.1984" y2="118.4" gradientUnits="userSpaceOnUse">
<stop offset="0.0227867" stop-color="#8991D9"/>
<stop offset="0.494653" stop-color="#968ED9"/>
<stop offset="1" stop-color="#C06ED0"/>
</linearGradient>
<linearGradient id="paint5_linear" x1="48.7984" y1="7.99961" x2="85.1984" y2="118.4" gradientUnits="userSpaceOnUse">
<stop offset="0.0227867" stop-color="#8991D9"/>
<stop offset="0.494653" stop-color="#968ED9"/>
<stop offset="1" stop-color="#C06ED0"/>
</linearGradient>
<linearGradient id="paint6_linear" x1="48.7984" y1="7.99961" x2="85.1984" y2="118.4" gradientUnits="userSpaceOnUse">
<stop offset="0.0227867" stop-color="#8991D9"/>
<stop offset="0.494653" stop-color="#968ED9"/>
<stop offset="1" stop-color="#C06ED0"/>
</linearGradient>
<linearGradient id="paint7_linear" x1="48.7984" y1="7.99961" x2="85.1984" y2="118.4" gradientUnits="userSpaceOnUse">
<stop offset="0.0227867" stop-color="#8991D9"/>
<stop offset="0.494653" stop-color="#968ED9"/>
<stop offset="1" stop-color="#C06ED0"/>
</linearGradient>
<linearGradient id="paint8_linear" x1="48.7984" y1="7.99961" x2="85.1984" y2="118.4" gradientUnits="userSpaceOnUse">
<stop offset="0.0227867" stop-color="#8991D9"/>
<stop offset="0.494653" stop-color="#968ED9"/>
<stop offset="1" stop-color="#C06ED0"/>
</linearGradient>
<linearGradient id="paint9_linear" x1="48.7984" y1="7.99961" x2="85.1984" y2="118.4" gradientUnits="userSpaceOnUse">
<stop offset="0.0227867" stop-color="#8991D9"/>
<stop offset="0.494653" stop-color="#968ED9"/>
<stop offset="1" stop-color="#C06ED0"/>
</linearGradient>
<linearGradient id="paint10_linear" x1="48.7984" y1="7.99961" x2="85.1984" y2="118.4" gradientUnits="userSpaceOnUse">
<stop offset="0.0227867" stop-color="#8991D9"/>
<stop offset="0.494653" stop-color="#968ED9"/>
<stop offset="1" stop-color="#C06ED0"/>
</linearGradient>
<linearGradient id="paint11_linear" x1="48.7984" y1="7.99961" x2="85.1984" y2="118.4" gradientUnits="userSpaceOnUse">
<stop offset="0.0227867" stop-color="#8991D9"/>
<stop offset="0.494653" stop-color="#968ED9"/>
<stop offset="1" stop-color="#C06ED0"/>
</linearGradient>
<linearGradient id="paint12_linear" x1="48.7984" y1="7.99961" x2="85.1984" y2="118.4" gradientUnits="userSpaceOnUse">
<stop offset="0.0227867" stop-color="#8991D9"/>
<stop offset="0.494653" stop-color="#968ED9"/>
<stop offset="1" stop-color="#C06ED0"/>
</linearGradient>
<linearGradient id="paint13_linear" x1="48.7984" y1="7.99961" x2="85.1984" y2="118.4" gradientUnits="userSpaceOnUse">
<stop offset="0.0227867" stop-color="#8991D9"/>
<stop offset="0.494653" stop-color="#968ED9"/>
<stop offset="1" stop-color="#C06ED0"/>
</linearGradient>
<linearGradient id="paint14_linear" x1="48.7984" y1="7.99961" x2="85.1984" y2="118.4" gradientUnits="userSpaceOnUse">
<stop offset="0.0227867" stop-color="#8991D9"/>
<stop offset="0.494653" stop-color="#968ED9"/>
<stop offset="1" stop-color="#C06ED0"/>
</linearGradient>
<linearGradient id="paint15_linear" x1="48.7984" y1="7.99961" x2="85.1984" y2="118.4" gradientUnits="userSpaceOnUse">
<stop offset="0.0227867" stop-color="#8991D9"/>
<stop offset="0.494653" stop-color="#968ED9"/>
<stop offset="1" stop-color="#C06ED0"/>
</linearGradient>
</defs>
</svg>
