<svg width="104" height="20" viewBox="0 0 104 20" fill="none" xmlns="http://www.w3.org/2000/svg">
<path d="M35.0379 14.447C32.5324 14.447 30.5017 12.4562 30.5017 9.99973C30.5017 7.54375 32.5324 5.55257 35.0379 5.55257C37.5435 5.55257 39.5741 7.54375 39.5741 9.99973C39.5741 12.4562 37.5435 14.447 35.0379 14.447ZM39.5887 15.0112C39.5887 15.4183 40.3156 16.5624 41.2075 16.5624H41.7849C42.0085 16.5624 42.1916 16.3864 42.1916 16.1718V4.00179H42.1894C42.1778 3.79684 42.0013 3.63256 41.7849 3.63256H39.9954C39.7797 3.63256 39.6025 3.79684 39.5908 4.00179H39.5887V4.99074C38.492 3.6956 36.7642 3.15832 35.0307 3.15832C31.0915 3.15832 27.8988 6.22109 27.8988 9.99973C27.8988 13.7784 31.0915 16.8417 35.0307 16.8417C36.7642 16.8417 38.6525 16.1967 39.5879 15.0095L39.5887 15.0112ZM46.4663 13.2683C47.6603 14.0616 48.9639 14.447 50.2167 14.447C51.4107 14.447 52.6438 13.8535 52.6438 12.8207C52.6438 11.4416 49.9552 11.227 48.2667 10.6764C46.5767 10.1257 45.122 8.98718 45.122 7.14372C45.122 4.32302 47.7423 3.15788 50.1876 3.15788C51.7375 3.15788 53.336 3.64811 54.3731 4.35032C54.7304 4.6096 54.5125 4.90765 54.5125 4.90765L53.5226 6.26321C53.4115 6.4158 53.1813 6.53774 52.938 6.38232C52.2713 5.95971 51.529 5.55242 50.1876 5.55242C48.5274 5.55242 47.7968 6.21361 47.7968 7.03268C47.7968 8.01531 48.9646 8.32426 50.3336 8.65928C52.7179 9.27551 55.3194 10.0168 55.3194 12.8207C55.3194 15.306 52.8951 16.8421 50.2167 16.8421C48.1868 16.8421 46.4583 16.2869 45.0087 15.2666C44.7073 14.9768 44.9179 14.7076 44.9179 14.7076L45.9027 13.3592C46.1032 13.1068 46.3559 13.1949 46.4663 13.2683ZM68.7362 15.0112C68.7362 15.4183 69.4625 16.5624 70.3558 16.5624H70.9296C71.1547 16.5624 71.3363 16.3864 71.3363 16.1718V4.00179C71.3217 3.79684 71.1474 3.63256 70.9296 3.63256H69.1429C68.9251 3.63256 68.7508 3.79684 68.7362 4.00179V4.99074C67.6396 3.6956 65.9111 3.15832 64.179 3.15832C60.2398 3.15832 57.0457 6.22109 57.0457 9.99973C57.0457 13.7784 60.2398 16.8417 64.179 16.8417C65.9111 16.8417 67.7994 16.1967 68.7362 15.0095V15.0112ZM64.1855 14.447C61.6799 14.447 59.6493 12.4562 59.6493 9.99973C59.6493 7.54375 61.6799 5.55257 64.1855 5.55257C66.6882 5.55257 68.7217 7.54375 68.7217 9.99973C68.7217 12.4562 66.6882 14.447 64.1855 14.447ZM87.372 15.4294L87.3647 9.13222C87.3647 5.5822 85.0334 3.18744 81.3077 3.18744C79.5357 3.18744 78.0759 4.17326 77.5603 5.01993V5.00817V5.01783C77.5603 4.16084 76.834 3.66183 75.9407 3.66183H75.367C75.1418 3.66183 74.9603 3.8378 74.9603 4.05263V16.2234C74.9748 16.4283 75.1491 16.5928 75.367 16.5928H77.1536C77.1826 16.5928 77.2117 16.5896 77.2335 16.585C77.248 16.5826 77.2625 16.5781 77.2698 16.5749C77.2843 16.5711 77.2988 16.568 77.3133 16.5629C77.3279 16.5567 77.3424 16.548 77.3569 16.5401C77.3642 16.5359 77.3715 16.5329 77.3787 16.5287C77.3932 16.5176 77.415 16.5042 77.4296 16.4906C77.4296 16.488 77.4368 16.4864 77.4368 16.484C77.4513 16.4676 77.4731 16.4497 77.4876 16.4305C77.5312 16.3715 77.5603 16.3003 77.5603 16.2234V9.03446C77.5603 7.12789 79.1725 5.5822 81.1625 5.5822C83.1524 5.5822 84.7647 7.12789 84.7647 9.03446V15.0437V15.0416C84.7647 15.0469 84.7647 15.0524 84.7647 15.058V16.2234C84.7793 16.4283 84.9536 16.5928 85.1714 16.5928H86.958C86.9871 16.5928 87.0161 16.5896 87.0452 16.585C87.0525 16.5827 87.0597 16.5786 87.0742 16.5762C87.0888 16.5721 87.1033 16.5684 87.1178 16.5629C87.1323 16.557 87.1469 16.549 87.1614 16.5416C87.1686 16.5372 87.1759 16.5337 87.1832 16.5287C87.1977 16.518 87.2122 16.5055 87.2268 16.4932C87.234 16.49 87.2413 16.4872 87.2413 16.4838C87.2558 16.4682 87.2703 16.4512 87.2848 16.4335C87.2848 16.432 87.2921 16.431 87.2921 16.4296C87.3357 16.3713 87.3647 16.3008 87.3647 16.2245C87.3647 16.224 87.3647 16.2234 87.3647 16.2234H87.372V15.4294ZM101.323 15.0112C101.323 15.4183 102.05 16.5624 102.936 16.5624H103.517C103.742 16.5624 103.923 16.3864 103.923 16.1718V4.00179C103.909 3.79684 103.735 3.63256 103.517 3.63256H101.73C101.512 3.63256 101.338 3.79684 101.323 4.00179V4.99074C100.227 3.6956 98.4983 3.15832 96.7625 3.15832C92.8262 3.15832 89.6307 6.22109 89.6307 9.99973C89.6307 13.7784 92.8262 16.8417 96.7625 16.8417C98.4983 16.8417 100.387 16.1967 101.316 15.0095L101.323 15.0112ZM96.7698 14.447C94.2642 14.447 92.2307 12.4562 92.2307 9.99973C92.2307 7.54375 94.2642 5.55257 96.7698 5.55257C99.2754 5.55257 101.309 7.54375 101.309 9.99973C101.309 12.4562 99.2754 14.447 96.7698 14.447ZM18.1989 10.5881C20.9013 10.5881 23.0924 12.6949 23.0924 15.2939C23.0924 17.8931 20.9013 20 18.1989 20C15.4958 20 13.3047 17.8931 13.3047 15.2939C13.3047 12.6949 15.4958 10.5881 18.1989 10.5881ZM5.48432 10.5884C8.18745 10.5884 10.3786 12.6949 10.3786 15.2941C10.3786 17.8931 8.18745 20 5.48432 20C2.78192 20 0.59082 17.8931 0.59082 15.2941C0.59082 12.6949 2.78192 10.5884 5.48432 10.5884ZM16.7348 4.70575C16.7348 7.30474 14.5444 9.41197 11.8413 9.41197C9.13889 9.41197 6.94774 7.30474 6.94774 4.70575C6.94774 2.10691 9.13889 0 11.8413 0C14.5444 0 16.7348 2.10691 16.7348 4.70575Z" fill="#4F4F71" fill-opacity="0.6"/>
</svg>
