<svg width="104" height="42" viewBox="0 0 104 42" fill="none" xmlns="http://www.w3.org/2000/svg">
<path d="M15.0177 13.2955C14.8146 13.3516 14.6111 13.4077 14.4055 13.4542C13.1454 13.7397 11.8978 13.6131 10.8848 12.6907C10.3187 12.1743 9.70047 12.0799 9.01148 12.2624C8.24055 12.4673 7.45969 12.5231 6.66642 12.579C5.3232 12.6746 4.39834 13.4666 3.66838 14.6038L4.46786 15.1177C3.95639 15.541 2.86518 15.6255 2.17991 15.2704C2.29815 15.097 2.43466 14.9367 2.5871 14.7925C2.81056 14.6199 2.83042 14.4113 2.81056 14.1631C2.58475 11.4735 2.56068 8.7708 2.73856 6.07765C2.81428 4.95664 3.01043 3.83191 3.79377 2.91698C3.907 2.78272 3.97386 2.61262 4.04104 2.44171C4.07698 2.3503 4.113 2.25865 4.15626 2.17213C4.21818 2.05044 4.27576 1.92504 4.33338 1.79956C4.47563 1.48978 4.61812 1.17948 4.82663 0.923257C5.46969 0.136193 6.36724 -0.0537462 7.39266 0.0120493C7.54535 0.728351 7.35293 1.34906 6.9805 1.92633C6.90184 2.04591 6.81034 2.15628 6.71888 2.26658C6.6328 2.3704 6.54675 2.47418 6.47152 2.58552C6.27452 2.85801 6.10014 3.14615 5.95012 3.44707C5.73648 3.96498 5.36168 4.40029 4.88125 4.6885C3.81611 5.29679 3.41017 6.26511 3.37665 7.41963C3.3577 8.05389 3.36826 8.69011 3.37878 9.32401C3.38274 9.56234 3.38669 9.80035 3.38906 10.0378C3.40332 10.1347 3.42575 10.2302 3.4561 10.3233C3.54181 10.2576 3.62044 10.1831 3.69073 10.1011C4.25434 9.23211 4.73973 8.32587 4.95946 7.3017C5.07353 6.75472 5.33794 6.25042 5.72294 5.84551C5.91857 5.65201 6.09988 5.44456 6.26544 5.22479C6.5093 4.89135 6.72245 4.53651 6.90229 4.16462C7.16051 3.58115 7.50066 3.11189 8.09779 2.82512C8.36015 2.69771 8.60271 2.52898 8.84532 2.36021C8.96202 2.27903 9.07875 2.19784 9.19769 2.12123C9.41901 1.95716 9.65363 1.81183 9.89909 1.68673C10.3919 1.47445 10.9084 1.40989 11.3652 1.76742C11.8221 2.12495 11.9685 2.63394 11.8891 3.20499C11.81 3.78185 11.5294 4.31216 11.0971 4.70215C10.6293 5.12833 10.3141 5.65403 9.99903 6.1796C9.92862 6.29704 9.85822 6.41446 9.78612 6.53077C9.6746 6.7403 9.5939 6.96483 9.54653 7.19742C9.3119 8.07883 8.86002 8.76658 8.01461 9.20853C7.41749 9.52509 6.82036 9.82179 6.15247 9.94593C4.84525 10.1843 4.08426 10.9515 3.83597 12.2488C3.78741 12.5015 3.72357 12.7509 3.65205 13.0303C3.6157 13.1723 3.57736 13.3221 3.53803 13.484C3.64667 13.4465 3.7511 13.3979 3.84963 13.3387C4.92346 12.3704 6.18599 11.6988 7.46342 11.062C8.9072 10.3432 10.4379 10.2948 11.9884 10.6535C12.4077 10.7505 12.8239 10.8603 13.2401 10.97C13.6655 11.0821 14.0911 11.1944 14.5197 11.2929C14.8153 11.3574 15.1158 11.4008 15.4164 11.4441C15.6244 11.4741 15.8325 11.5041 16.0392 11.5412C16.2524 11.5701 16.4611 11.6264 16.6599 11.7088C16.8097 11.7678 16.9352 11.8756 17.0161 12.0149C17.097 12.1541 17.1285 12.3166 17.1056 12.476C17.072 12.7664 16.8287 13.0122 16.424 13.0259C15.9354 13.0423 15.4765 13.1689 15.0177 13.2955Z" fill="#4F4F71" fill-opacity="0.6"/>
<path d="M22.4126 22.2822C22.3388 21.1805 22.2652 20.0797 22.0738 18.9872C21.9908 18.5159 21.9395 18.0394 21.8882 17.5628C21.8419 17.1331 21.7956 16.7033 21.7262 16.2772C21.602 15.541 21.3773 15.3958 20.6486 15.3623C20.1706 15.3399 19.8491 15.5646 19.6244 15.9457C19.3607 16.3917 19.105 16.8422 18.8496 17.2921C18.7048 17.5473 18.5601 17.8023 18.414 18.0562L18.1706 18.4841C17.782 19.1674 17.3913 19.8545 16.9951 20.534C16.879 20.7027 16.7525 20.864 16.6164 21.017C16.4792 20.7693 16.345 20.531 16.2141 20.2985C15.9257 19.7865 15.653 19.3024 15.3986 18.8072C14.8538 17.7493 14.2161 16.7418 13.493 15.7968C13.1541 15.3548 12.6985 15.3076 12.2081 15.402C11.7389 15.4914 11.6147 15.8762 11.5254 16.271C11.4972 16.3864 11.4753 16.5033 11.4596 16.6211C11.4099 17.073 11.3588 17.5248 11.3077 17.9767C11.1764 19.1387 11.0451 20.3007 10.9369 21.4626C10.8518 22.3485 10.7836 23.2352 10.7154 24.1221C10.6712 24.6968 10.627 25.2715 10.5782 25.8461C10.5533 26.1336 10.5195 26.4202 10.4856 26.7068C10.4451 27.0502 10.4046 27.3937 10.3795 27.738C10.3473 28.18 10.4366 28.2706 10.8761 28.2793C11.5502 28.2942 12.2255 28.2917 12.8996 28.2793C13.2969 28.2718 13.3801 28.1676 13.3701 27.7753C13.3701 27.7049 13.362 27.6342 13.3538 27.5637C13.3437 27.4762 13.3336 27.3889 13.3391 27.3023C13.4384 25.7795 13.5427 24.2571 13.6519 22.7351C13.6868 22.5278 13.7366 22.3232 13.8009 22.1231C13.8792 22.1884 13.9538 22.2434 14.0224 22.2939C14.157 22.3932 14.2681 22.475 14.3372 22.5836C14.5789 22.9613 14.7969 23.3553 15.0144 23.7485C15.065 23.8399 15.1156 23.9313 15.1665 24.0225C15.5207 24.6591 15.8729 25.2972 16.2417 25.9654L16.6351 26.6779C16.6981 26.6035 16.7588 26.538 16.8152 26.4771C16.9256 26.358 17.02 26.2561 17.0857 26.1378C17.4877 25.415 17.8819 24.6887 18.2763 23.962C18.4482 23.6453 18.6201 23.3285 18.7927 23.0119C18.8411 22.9033 18.9028 22.8012 18.9764 22.7078C19.0886 22.6042 19.2095 22.5103 19.3377 22.4272C19.3497 22.5146 19.361 22.5898 19.3712 22.6572C19.389 22.7763 19.4034 22.8723 19.4121 22.9672C19.4228 23.0845 19.4306 23.202 19.4385 23.3195C19.4518 23.5182 19.4651 23.7167 19.4916 23.9132C19.5213 24.1331 19.5575 24.3522 19.5936 24.571C19.6512 24.9192 19.7086 25.2671 19.7399 25.6177C19.7899 26.1529 19.8116 26.6904 19.8333 27.2277L19.8334 27.2289C19.8396 27.3842 19.8459 27.5394 19.8528 27.6946C19.8739 28.1713 19.9273 28.2644 20.4065 28.257C21.0325 28.2466 21.6585 28.2091 22.3126 28.17C22.5208 28.1575 22.7329 28.1448 22.9477 28.1328C22.9377 27.9803 22.9297 27.835 22.922 27.6946C22.9065 27.4157 22.8922 27.1561 22.8658 26.8976C22.8208 26.4608 22.7707 26.023 22.7206 25.5843C22.6229 24.7287 22.5247 23.8694 22.4623 23.007C22.445 22.7664 22.4289 22.5258 22.4128 22.2853L22.4127 22.284L22.4126 22.2822Z" fill="#4F4F71" fill-opacity="0.6"/>
<path d="M6.69205 23.5492L6.69175 23.548C6.60779 23.2281 6.52365 22.9075 6.44049 22.5874C6.40002 22.4313 6.3577 22.2758 6.31541 22.1204C6.09826 21.3226 5.88189 20.5276 5.92033 19.6787C5.92522 19.1843 5.90533 18.6901 5.86075 18.1977C5.8542 18.0864 5.8415 17.975 5.8288 17.8636C5.80777 17.6792 5.78674 17.4947 5.79371 17.3113C5.82226 16.5826 5.47591 16.0699 4.93837 15.6714C3.8844 16.2002 2.82795 16.2139 1.71935 15.8824C1.69519 15.9112 1.66838 15.9413 1.64036 15.9728C1.58488 16.0352 1.52468 16.1028 1.47107 16.1754C0.99312 16.8532 0.881391 17.644 0.826769 18.4348C0.686488 20.4956 0.794492 22.5514 1.00926 24.6047C1.12123 25.6726 1.1935 26.7464 1.2657 27.8192L1.27244 27.9193C1.31788 28.5852 1.35519 29.252 1.39252 29.9188C1.42046 30.418 1.4484 30.9173 1.47976 31.4164C1.4952 31.6691 1.51771 31.9219 1.54022 32.1747C1.57742 32.5924 1.61463 33.0103 1.62004 33.4287C1.62701 33.9218 1.60598 34.4153 1.58495 34.909C1.57225 35.2071 1.55955 35.5054 1.553 35.8036C1.5192 37.468 1.63638 39.1322 1.90308 40.7755C1.95199 41.0686 2.04447 41.3527 2.17744 41.6184C2.37731 42.0219 2.74849 42.115 3.11844 41.8518C3.29479 41.7289 3.43016 41.5559 3.507 41.3552C3.73264 40.7012 3.91878 40.0342 4.0644 39.3578C4.1757 38.7835 4.26979 38.2054 4.36389 37.6273C4.4797 36.9158 4.59552 36.2042 4.74346 35.4994C5.05258 34.0308 5.19658 32.5659 4.95699 31.0737L4.95304 31.0494L4.94901 31.0253C4.91516 30.8237 4.87597 30.5903 5.13203 30.3388C5.16159 30.4186 5.19028 30.491 5.21714 30.5587C5.26924 30.69 5.31443 30.8039 5.34556 30.921C5.38404 31.0677 5.41394 31.2176 5.4438 31.3672C5.49582 31.6279 5.54773 31.8881 5.64474 32.1302C5.79155 32.4974 5.9339 32.8664 6.07625 33.2355C6.52488 34.3986 6.97343 35.5616 7.5615 36.6651C7.73033 36.9817 7.89917 37.297 8.38829 37.4708C8.44324 37.2543 8.48184 37.0339 8.50374 36.8116C8.50781 36.5442 8.50292 36.2762 8.49804 36.0081C8.49099 35.6216 8.48395 35.235 8.50374 34.8502C8.63409 32.4666 8.22194 30.1414 7.74275 27.8336C7.4388 26.395 7.0654 24.972 6.69205 23.5492Z" fill="#4F4F71" fill-opacity="0.6"/>
<path d="M78.6119 25.5956C78.1925 25.5913 77.7727 25.587 77.3519 25.5854C77.1334 25.5854 76.915 25.5868 76.6967 25.5882H76.6955C76.2595 25.5909 75.8232 25.5937 75.3868 25.5854C74.9622 25.5767 74.8902 25.5171 74.8976 25.0975C74.9044 24.4379 74.9289 23.779 74.9535 23.1197C74.9607 22.9265 74.9679 22.7334 74.9746 22.5402C74.9833 22.2534 75.131 22.1094 75.424 22.1032C76.6927 22.0759 77.9619 22.0469 79.2315 22.0163C79.2933 22.0163 79.3553 22.0177 79.4174 22.0191C79.5731 22.0227 79.7298 22.0262 79.8832 22.0076C80.2556 21.9604 80.3227 21.8835 80.3276 21.5111C80.3338 21.0952 80.3276 20.6781 80.3177 20.2622C80.3013 20.0972 80.2748 19.9335 80.2383 19.7718C80.1592 19.7675 80.0836 19.7622 80.0103 19.7572C79.8533 19.7463 79.7069 19.7362 79.5604 19.7371C78.2503 19.7453 76.9406 19.7569 75.6313 19.7718C75.0106 19.7793 74.9101 19.6924 74.8716 19.0692C74.8517 18.7526 74.8554 18.4348 74.8716 18.117C74.8865 17.6626 74.9312 17.644 75.4128 17.6415C76.9795 17.6333 78.5462 17.6184 80.1129 17.5968C80.2269 17.5968 80.3409 17.5813 80.4735 17.5633C80.543 17.5539 80.6177 17.5437 80.7001 17.5348C80.708 17.3507 80.7173 17.1733 80.7264 17.0002L80.7265 16.9984L80.7265 16.9969C80.7459 16.6285 80.7642 16.2798 80.7659 15.9308C80.7659 15.3734 80.7087 15.3275 80.1451 15.3275L76.699 15.3337H73.007C72.4731 15.3337 72.2621 15.5212 72.1628 16.0413C72.1364 16.1775 72.1235 16.316 72.1243 16.4547C72.1325 17.0028 72.1434 17.5509 72.1542 18.0988C72.1712 18.9583 72.1882 19.8174 72.1951 20.6756C72.202 21.5482 72.2019 22.4205 72.2017 23.2928C72.2016 24.1256 72.2014 24.9584 72.2075 25.7915C72.2075 26.2893 72.2439 26.788 72.2804 27.2861L72.2969 27.5133C72.3254 27.923 72.5191 28.1154 72.9263 28.1601C73.0156 28.17 73.1062 28.1686 73.197 28.1672C73.2652 28.1662 73.3336 28.1651 73.4017 28.1688C73.8353 28.177 74.2688 28.1869 74.7024 28.1969C75.6568 28.2188 76.6115 28.2407 77.5667 28.2433C78.4965 28.2433 79.4288 28.1998 80.3562 28.1514C80.8019 28.1278 80.8726 28.0273 80.8764 27.6064C80.8813 27.1521 80.8842 26.6969 80.885 26.2409C80.885 25.7083 80.7721 25.6102 80.2072 25.6065C79.6755 25.6065 79.1439 25.6011 78.6119 25.5956Z" fill="#4F4F71" fill-opacity="0.6"/>
<path d="M37.5193 22.6865C37.5136 21.4299 37.508 20.1734 37.4898 18.9177C37.4833 18.5023 37.4599 18.0869 37.4366 17.6732L37.4365 17.6721L37.4365 17.6709C37.4199 17.3758 37.4033 17.0814 37.393 16.7887C37.3814 16.5711 37.3897 16.353 37.4178 16.1369C37.5134 15.4616 37.6102 15.3759 38.2955 15.3759C39.0446 15.372 39.793 15.3719 40.541 15.3717C41.2209 15.3716 41.9012 15.3714 42.5809 15.3685C43.0947 15.3664 43.6105 15.3605 44.1267 15.3546C44.5408 15.3499 44.9552 15.3452 45.3691 15.3424C45.4855 15.3416 45.6066 15.3523 45.7331 15.3636C45.7914 15.3688 45.8509 15.3741 45.9116 15.3784C46.0747 15.9159 46.0458 16.4436 46.0172 16.9645C46.009 17.1137 46.0009 17.2624 45.9973 17.4106C45.9948 17.4975 45.8371 17.6229 45.7279 17.6589C45.5732 17.6933 45.414 17.7033 45.2562 17.6887L40.9112 17.6999H40.2296C40.1313 18.3001 40.1271 18.9121 40.2172 19.5136C40.247 19.747 40.4171 19.8488 40.6343 19.8637C40.7791 19.8736 40.9245 19.8703 41.07 19.867C41.1428 19.8653 41.2157 19.8637 41.2886 19.8637L44.6119 19.8314C44.6951 19.8308 44.778 19.8338 44.8609 19.8369C44.9362 19.8398 45.0117 19.8426 45.0873 19.8426C45.3716 19.8438 45.5479 19.9816 45.5541 20.2671C45.5599 20.6331 45.558 20.9974 45.5561 21.3678C45.5551 21.5552 45.5541 21.7441 45.5541 21.9356C45.4197 21.9645 45.2837 21.9856 45.1469 21.9989L45.1127 21.9996C43.6729 22.0292 42.2368 22.0587 40.8019 22.0784C40.283 22.0858 40.2122 22.1367 40.1949 22.6432L40.1817 22.9999C40.1582 23.6333 40.1348 24.2667 40.1253 24.9001C40.1369 25.1184 40.1651 25.3355 40.2098 25.5494C40.2934 25.5782 40.3794 25.5998 40.4667 25.614L40.8862 25.6245L40.8874 25.6245C42.2325 25.6583 43.5771 25.6921 44.9259 25.7158C45.0743 25.7186 45.223 25.699 45.372 25.6793C45.4798 25.665 45.5877 25.6507 45.6956 25.645C46.0358 25.6276 46.1537 25.7145 46.1537 26.0311C46.1595 26.4143 46.1576 26.7975 46.1556 27.1806C46.1547 27.3722 46.1537 27.5638 46.1537 27.7554C46.1562 28.0496 46.0221 28.1974 45.7254 28.1974C45.5557 28.199 45.3854 28.204 45.2155 28.2089C45.0078 28.2149 44.8006 28.221 44.5957 28.221H39.3581C39.1779 28.2216 38.9981 28.2383 38.8182 28.255C38.6623 28.2695 38.5063 28.284 38.3501 28.288C37.717 28.3004 37.5531 28.1725 37.5407 27.5431C37.5245 26.7278 37.5252 25.9125 37.5259 25.0969C37.5263 24.6635 37.5267 24.229 37.5246 23.7953C37.5226 23.4303 37.521 23.0654 37.5193 22.7005L37.5193 22.6865Z" fill="#4F4F71" fill-opacity="0.6"/>
<path d="M69.5409 15.3747H67.1487C66.7195 15.3747 66.2898 15.3714 65.8602 15.3682C65.5381 15.3658 65.2161 15.3633 64.8943 15.3623C64.5705 15.3623 64.2468 15.3612 63.9231 15.3601C63.2751 15.3579 62.6262 15.3557 61.9782 15.3623C61.5052 15.3623 61.3463 15.5398 61.3214 16.0115C61.3214 16.0636 61.3243 16.1161 61.3271 16.1687C61.3295 16.2148 61.332 16.262 61.3326 16.3082C61.338 16.6664 61.3435 17.0245 61.349 17.3825V17.3836C61.3628 18.2734 61.3766 19.1634 61.3872 20.0536C61.3991 21.0331 61.4098 22.0123 61.4205 22.9916L61.4206 22.9998C61.4367 24.4749 61.4528 25.951 61.4729 27.4264C61.4941 27.6668 61.5322 27.9053 61.5871 28.1403C61.7144 28.1527 61.8376 28.1671 61.9578 28.1811C62.2081 28.2102 62.446 28.2378 62.6833 28.2445C63.0781 28.2664 63.474 28.2527 63.8664 28.2036C64.3058 28.1365 64.3468 28.036 64.3182 27.6027C64.2934 27.2067 64.2736 26.8107 64.2649 26.4147C64.2508 25.6624 64.2421 24.9097 64.2388 24.1565C64.2388 24.0104 64.238 23.8643 64.2372 23.7182L64.2372 23.7162V23.715C64.2348 23.29 64.2324 22.8654 64.25 22.4421C64.2673 22.0622 64.3505 21.9952 64.7229 21.9828C64.928 21.976 65.1335 21.9807 65.3392 21.9854C65.4709 21.9885 65.6029 21.9915 65.7347 21.9915H69.3199C69.3285 21.8083 69.3378 21.6344 69.3467 21.4668C69.3664 21.0994 69.3843 20.7624 69.3895 20.4248C69.3982 19.85 69.31 19.7718 68.739 19.7718C68.5501 19.7718 68.3608 19.771 68.1713 19.7702H68.168C67.7859 19.7685 67.4025 19.7668 67.0208 19.7718C66.9146 19.7718 66.8087 19.7844 66.7028 19.797C66.6119 19.8078 66.521 19.8186 66.4299 19.8215L66.3464 19.8244C65.8008 19.8433 65.2535 19.8623 64.7068 19.86C64.4585 19.86 64.2016 19.788 64.1656 19.4962C64.0973 18.9339 64.0327 18.3616 64.3356 17.8029H69.1114C69.6303 17.8029 69.7073 17.7197 69.7197 17.2244C69.7375 16.8484 69.7354 16.4717 69.7135 16.096C69.6768 15.851 69.619 15.6097 69.5409 15.3747Z" fill="#4F4F71" fill-opacity="0.6"/>
<path d="M87.7935 15.4094C88.7084 15.289 89.6817 15.2456 90.5793 15.4219C92.095 15.721 92.2614 16.1307 92.2242 17.423C92.2009 17.7021 92.1627 17.9798 92.1099 18.2548C92.0045 18.2317 91.9044 18.2103 91.8079 18.1897L91.8068 18.1894C91.5985 18.1449 91.4072 18.104 91.2174 18.0574C90.1286 17.7893 89.0461 17.6639 87.9288 17.9482C86.7197 18.2598 85.3293 20.0151 85.3467 21.295C85.3487 21.4942 85.3421 21.6934 85.3356 21.8918L85.3318 22.0089C85.2846 23.4601 86.1114 24.673 87.4856 25.136C87.5978 25.1738 87.7097 25.2135 87.8217 25.2532C88.4552 25.4779 89.0907 25.7033 89.7922 25.5978C90.2752 25.527 90.7582 25.4659 91.2417 25.4046C91.3858 25.3863 91.53 25.3681 91.6742 25.3495C91.7335 25.3417 91.7938 25.3398 91.8727 25.3373L91.9402 25.335L91.9686 25.334C91.9896 25.3331 92.0118 25.3321 92.0355 25.3309C92.1677 26.0319 92.1677 26.7515 92.0355 27.4525C91.9748 27.6102 91.8611 27.7419 91.7139 27.8249C91.0906 28.2325 90.3759 28.2465 89.668 28.2604L89.5923 28.2619C89.4368 28.2656 89.2809 28.2522 89.1251 28.2387C88.9638 28.2248 88.8024 28.2109 88.6414 28.216C86.4565 28.2843 84.8464 27.2688 83.6198 25.5531C81.9712 23.2466 82.0072 20.8221 83.3989 18.4634C84.3672 16.8234 85.8308 15.6677 87.7935 15.4094Z" fill="#4F4F71" fill-opacity="0.6"/>
<path d="M103.274 15.4752C101.785 15.514 100.297 15.4898 98.8155 15.4657C97.2612 15.4404 95.713 15.4152 94.1744 15.4628C93.9355 15.9176 93.9646 16.3318 93.9926 16.731C93.9963 16.784 94 16.8367 94.0031 16.8892C94.054 17.783 94.1024 17.8203 94.9726 17.819C95.1404 17.819 95.3077 17.8084 95.4749 17.7978C95.6047 17.7896 95.7344 17.7813 95.864 17.7781C96.0486 17.7739 96.2331 17.7753 96.4177 17.7767C96.5099 17.7774 96.6022 17.7781 96.6945 17.7781C96.9714 17.7781 97.0843 17.9159 97.0943 18.1853C97.1054 18.5002 97.1237 18.8151 97.1419 19.13C97.1765 19.726 97.2111 20.3218 97.1973 20.9164C97.1889 21.3447 97.2145 21.7729 97.2401 22.2009C97.283 22.9192 97.3259 23.6372 97.2085 24.3552C97.2059 24.4742 97.2126 24.5934 97.2283 24.7114C97.2283 24.9011 97.23 25.091 97.2316 25.2809V25.282C97.2349 25.6633 97.2383 26.0455 97.2283 26.4271C97.2256 26.5308 97.2204 26.6345 97.2152 26.7383C97.1917 27.2076 97.168 27.6817 97.3723 28.1899C97.5835 28.1968 97.795 28.2066 98.0066 28.2164C98.4827 28.2385 98.9599 28.2607 99.4368 28.2495C100.23 28.2309 100.26 28.1787 100.259 27.3805C100.259 25.4571 100.252 23.5342 100.239 21.6116C100.239 21.4617 100.229 21.3122 100.219 21.1628C100.21 21.0351 100.201 20.9074 100.199 20.7798L100.191 20.3806C100.177 19.6819 100.163 18.9832 100.167 18.2846C100.167 17.9022 100.28 17.8141 100.688 17.8079C101.026 17.8027 101.364 17.8029 101.702 17.8031C102.019 17.8032 102.336 17.8034 102.652 17.7992C102.83 17.798 103.007 17.7818 103.182 17.7508C103.272 17.7405 103.355 17.698 103.416 17.6311C103.477 17.5641 103.511 17.4774 103.512 17.387C103.582 16.7399 103.5 16.0855 103.274 15.4752Z" fill="#4F4F71" fill-opacity="0.6"/>
<path d="M74.4408 35.4721C74.9396 35.6644 75.4505 35.8236 75.9702 35.9488C76.5001 36.0815 76.9602 36.4096 77.2584 36.8673C77.5565 37.325 77.6706 37.8785 77.5779 38.4168C77.2017 40.5582 74.9026 41.5998 73.0069 40.4949C72.6486 40.3002 72.3324 40.0363 72.0767 39.7186C71.821 39.4009 71.6309 39.0356 71.5172 38.644C71.3968 38.2318 71.4911 38.1139 71.9294 38.094H72.6333C72.6501 38.1134 72.6665 38.1305 72.6816 38.1463C72.7178 38.1841 72.7469 38.2145 72.7574 38.2504C73.0529 39.2709 73.6699 39.5192 74.9026 39.5192C75.6139 39.5192 76.3079 38.644 76.221 37.9413C76.1639 37.4745 75.8436 37.2089 75.4277 37.0661C75.1109 36.9566 74.7884 36.8625 74.4656 36.7683C74.3128 36.7237 74.1599 36.6791 74.0075 36.6328C73.9182 36.6049 73.8284 36.579 73.7387 36.5532C73.5615 36.5022 73.3844 36.4513 73.213 36.3846C72.8637 36.2544 72.5499 36.0438 72.2971 35.7698C72.0443 35.4958 71.8595 35.1662 71.7577 34.8076C71.6559 34.4489 71.64 34.0714 71.7113 33.7055C71.7825 33.3395 71.9389 32.9955 72.1677 32.7012C72.3487 32.4758 72.5746 32.2905 72.8311 32.1572C73.0875 32.0238 73.369 31.9453 73.6574 31.9266C74.2887 31.862 74.9251 31.8657 75.5556 31.9378C76.5649 32.0607 77.3643 33.2649 77.1694 34.3399C76.8831 34.357 76.596 34.3525 76.3104 34.3263C76.1924 34.3077 76.0633 34.1475 75.9988 34.0234C75.496 33.0426 74.7052 32.7261 73.6823 33.1122C72.9858 33.3741 72.7686 34.3114 73.3297 34.8079C73.6611 35.0888 74.0365 35.3132 74.4408 35.4721Z" fill="#4F4F71" fill-opacity="0.6"/>
<path d="M34.0075 31.8968C32.6023 31.8534 31.197 31.8161 29.7867 31.8174C29.1784 31.8174 29.0779 31.9651 29.0518 32.5697V32.7484C29.0518 35.2255 29.0485 37.7017 29.0419 40.1771C29.0419 40.3133 29.0496 40.45 29.0581 40.5999C29.0628 40.6823 29.0677 40.7687 29.0716 40.8611H30.3727C30.3791 40.7305 30.387 40.5998 30.395 40.469C30.4117 40.1943 30.4285 39.9191 30.431 39.6433C30.4354 39.2491 30.4342 38.8548 30.433 38.4606C30.4315 37.9636 30.43 37.4663 30.4397 36.9693C30.4509 36.4367 30.508 36.3982 31.0331 36.387C31.2784 36.3813 31.5237 36.3777 31.769 36.3742C32.1578 36.3686 32.5468 36.363 32.935 36.3486C33.2048 36.3391 33.474 36.3142 33.7546 36.2882C33.8793 36.2766 34.0064 36.2649 34.1367 36.2542V35.1717C33.5404 35.0701 32.9523 35.0888 32.3683 35.1072C31.7243 35.1276 31.0853 35.1479 30.4459 35.0066V33.0203H31.2168C31.4816 33.0228 31.7464 33.0263 32.0112 33.0298C32.6577 33.0382 33.3042 33.0467 33.948 33.0414C34.4147 33.0414 34.4718 32.9595 34.4793 32.5274C34.4954 32.0495 34.4185 31.9154 34.0075 31.8968Z" fill="#4F4F71" fill-opacity="0.6"/>
<path fill-rule="evenodd" clip-rule="evenodd" d="M56.7108 23.6179C56.6096 23.752 56.5105 23.8833 56.4141 24.01C57.4221 25.3446 58.3929 26.6381 59.3575 27.9354C59.3742 27.9577 59.3669 27.9975 59.3566 28.0536C59.3508 28.0849 59.3441 28.1213 59.3401 28.1626C59.2691 28.1672 59.1981 28.1722 59.1272 28.1773C58.9499 28.1898 58.7725 28.2023 58.5952 28.2085C58.0407 28.2284 57.4858 28.2445 56.9305 28.257C56.7823 28.2658 56.6343 28.2376 56.4997 28.175C56.3651 28.1123 56.2482 28.0172 56.1596 27.8982C55.7447 27.3804 55.3246 26.8666 54.9044 26.3529C54.4584 25.8074 54.0123 25.2619 53.5724 24.7114C53.3912 24.483 53.2075 24.308 52.9095 24.2583C52.2813 24.1603 52.1138 24.2745 52.1051 24.9051C52.0976 25.7952 52.0976 26.6866 52.0976 27.5767V28.1626C51.9342 28.2197 51.7646 28.2572 51.5924 28.2743C51.364 28.2681 51.1349 28.2721 50.9041 28.2762C50.3016 28.2867 49.6868 28.2975 49.0425 28.1278C49.0276 23.8946 49.0239 19.6824 49.0363 15.3859C49.1551 15.3796 49.2633 15.3726 49.3639 15.3661C49.5618 15.3533 49.7307 15.3424 49.8953 15.3424C50.2014 15.3436 50.5075 15.3438 50.8137 15.344C51.7977 15.3446 52.782 15.3453 53.7649 15.3784C54.4175 15.4186 55.0673 15.4952 55.7114 15.6081C56.1468 15.6724 56.4658 15.9327 56.7931 16.1998C56.8512 16.2473 56.9096 16.295 56.969 16.3418C57.5748 16.8209 57.838 17.4603 58.0192 18.1542C58.0941 18.4829 58.1324 18.8189 58.1334 19.1561C58.1694 19.7299 58.1694 20.3054 58.1334 20.8792C58.0704 21.5555 57.8116 22.1987 57.3886 22.7301C57.1563 23.0277 56.9287 23.3293 56.7108 23.6179ZM53.7946 22.0536C54.5681 21.9977 55.0535 21.5731 55.3824 20.8928C55.9026 19.8202 55.4768 18.5974 54.388 18.1182C53.7363 17.8277 53.0448 17.7992 52.3496 17.7992C51.9015 17.8004 51.8332 17.8712 51.8531 18.3256C51.8688 18.6874 51.8962 19.0486 51.9236 19.4097C51.9352 19.5612 51.9467 19.7134 51.9573 19.8649H51.9213C51.9175 19.9255 51.9123 19.9861 51.9071 20.0469C51.8953 20.184 51.8835 20.3215 51.8878 20.4583C51.9008 20.6557 51.9248 20.8521 51.9598 21.0468C52.115 22.1305 52.2453 22.2286 53.3254 22.1305C53.4018 22.1239 53.4773 22.1082 53.5528 22.0926C53.6331 22.0759 53.7134 22.0593 53.7946 22.0536Z" fill="#4F4F71" fill-opacity="0.6"/>
<path fill-rule="evenodd" clip-rule="evenodd" d="M33.0455 16.0326C32.3068 15.7335 31.562 15.4901 30.7538 15.474C30.4888 15.4685 30.2238 15.4515 29.9587 15.4346C29.6304 15.4136 29.302 15.3926 28.9736 15.3933C28.004 15.3933 27.0345 15.4169 26.0662 15.4678C25.6652 15.4889 25.6044 15.5919 25.5982 15.9991C25.5881 16.6548 25.609 17.3095 25.6299 17.9644C25.6582 18.8521 25.6865 19.7401 25.6379 20.6309C25.6028 21.3103 25.6362 21.9926 25.6696 22.6754C25.6895 23.0805 25.7093 23.4859 25.7148 23.8909C25.7231 24.5074 25.7199 25.124 25.7167 25.7406C25.7141 26.2338 25.7115 26.7271 25.7148 27.2204C25.7147 27.4568 25.7567 27.6914 25.839 27.9131C25.8709 27.9797 25.9181 28.0378 25.9768 28.0827C26.0355 28.1276 26.104 28.158 26.1767 28.1713C26.7845 28.1891 27.3938 28.1871 28.0215 28.185C28.2258 28.1844 28.4321 28.1837 28.6409 28.1837C28.662 27.6556 28.6517 27.139 28.6415 26.6294C28.626 25.8488 28.6108 25.0848 28.7092 24.3216C28.9508 24.3007 29.1846 24.2814 29.4128 24.2624C29.9574 24.2173 30.4705 24.1748 30.9822 24.1205C31.9921 24.023 32.9632 23.6822 33.8127 23.1274C34.2181 22.872 34.5245 22.4863 34.6817 22.0337C35.2266 20.5129 35.0628 19.0183 34.4532 17.5732C34.1764 16.9265 33.7667 16.3256 33.0455 16.0326ZM32.503 19.963C32.4843 21.0306 32.3018 21.5247 30.9139 21.9046C30.4754 22.0244 30.0083 22.0502 29.5467 22.0757C29.4726 22.0798 29.3986 22.0838 29.3249 22.0883C28.9227 22.1119 28.7576 21.9518 28.7352 21.5917C28.6975 20.9924 28.6627 20.393 28.6237 19.7214L28.585 19.058V18.153C28.585 17.7731 28.6148 17.7396 29.0133 17.6564C29.8426 17.4926 30.6421 17.6415 31.3944 17.9631C31.6719 18.077 31.9157 18.2602 32.1023 18.4951C32.289 18.7301 32.4124 19.0089 32.4607 19.305C32.4971 19.5224 32.5113 19.7428 32.503 19.963Z" fill="#4F4F71" fill-opacity="0.6"/>
<path fill-rule="evenodd" clip-rule="evenodd" d="M39.5531 32.4716C40.9037 31.6907 42.2929 31.6522 43.692 32.3474C45.2003 33.096 46.2493 34.8948 46.1661 36.6676C46.2431 37.3789 45.9439 38.1213 45.5715 38.8202C45.2226 39.4745 44.6839 39.9524 44.0383 40.3435C42.8031 41.0896 41.4835 41.0188 40.1825 40.732C38.9423 40.4564 38.0472 39.6483 37.5159 38.4788C37.3845 38.1905 37.2729 37.8935 37.1819 37.59C36.6692 35.8793 37.0888 34.4281 38.4358 33.2611C38.7826 32.9634 39.1567 32.6991 39.5531 32.4716ZM41.5536 39.5437C42.3316 39.487 42.9202 39.444 43.4437 39.0623H43.4449C45.3133 37.6992 45.1233 35.3653 43.8062 34.0258C42.9608 33.168 41.5468 32.7447 40.3761 33.4051C39.649 33.8156 39.0647 34.4385 38.7014 35.1903C38.0273 36.5224 38.7585 38.7147 40.0881 39.2113C40.5015 39.35 40.9221 39.4661 41.3482 39.5589L41.475 39.5494L41.5536 39.5437Z" fill="#4F4F71" fill-opacity="0.6"/>
<path fill-rule="evenodd" clip-rule="evenodd" d="M53.7251 31.8757C53.1684 31.8342 52.6109 31.9435 52.1112 32.1923C50.6811 32.8602 49.7277 33.9414 49.2919 35.4572C49.1787 35.8345 49.13 36.2282 49.1479 36.6217C49.2348 37.9413 49.7364 39.0673 50.773 39.94C51.1628 40.2665 51.5625 40.5346 52.0616 40.6352C52.8797 40.8003 53.6928 40.9257 54.537 40.8065C56.1074 40.5868 57.3029 39.8978 57.8764 38.3435C57.9115 38.2472 57.9546 38.1532 57.9977 38.0594C58.0628 37.9175 58.1278 37.7759 58.1644 37.6272C58.1789 37.5669 58.1938 37.5064 58.2088 37.4457C58.298 37.084 58.3889 36.7157 58.3879 36.351C58.3804 33.9017 56.3557 31.9303 53.7251 31.8757ZM56.7343 37.6111C56.4699 38.1312 56.1918 38.6104 55.7002 38.958C55.1602 39.3404 54.6052 39.5887 53.9274 39.4422C53.7913 39.4128 53.6515 39.4044 53.5128 39.4174C51.9647 39.5527 50.4341 37.9574 50.5396 36.3622C50.6178 35.1618 51.123 34.2071 52.1956 33.6013C53.1416 33.0662 54.1124 32.916 55.1453 33.3952C55.5977 33.604 55.9873 33.9281 56.275 34.335C56.9838 35.3306 57.3488 36.4007 56.7343 37.6111Z" fill="#4F4F71" fill-opacity="0.6"/>
<path fill-rule="evenodd" clip-rule="evenodd" d="M64.1469 31.9825C64.7356 32.1501 65.3098 32.3652 65.8638 32.6255C67.3398 33.3046 67.932 34.5634 68.0822 36.099C68.2721 38.0083 67.2554 39.2709 65.7657 40.1957C65.3717 40.4411 64.8832 40.5419 64.3994 40.6416C64.2322 40.6761 64.0655 40.7105 63.9036 40.7506C63.2081 40.906 62.4921 40.9479 61.7832 40.8748C61.7467 40.644 61.7218 40.4116 61.7087 40.1783C61.706 39.6315 61.7066 39.0846 61.7072 38.5378C61.708 37.8347 61.7088 37.1318 61.7025 36.4292C61.6955 35.6843 61.6816 34.9431 61.6678 34.2024C61.6572 33.6384 61.6467 33.0747 61.6392 32.5101C61.6471 32.3147 61.6657 32.1199 61.6951 31.9266C62.5504 31.6932 63.3598 31.7665 64.1469 31.9825ZM63.7658 39.5154C64.5168 39.5154 65.14 39.179 65.7136 38.7433C66.6359 38.0394 67.1052 36.4926 66.6595 35.4721C66.0934 34.1761 65.1115 33.3468 63.7 33.0774C63.0867 32.9619 62.9477 33.0861 62.9725 33.7068C62.9923 34.2283 63.0157 34.7452 63.0391 35.2618C63.0523 35.5531 63.0655 35.8444 63.078 36.1363H63.0594V37.5068C63.0594 37.6587 63.0566 37.8108 63.0539 37.9628C63.0483 38.2666 63.0428 38.5703 63.0594 38.8724C63.0892 39.4087 63.2295 39.5154 63.7658 39.5154Z" fill="#4F4F71" fill-opacity="0.6"/>
</svg>
