<svg width="124" height="23" viewBox="0 0 124 23" fill="none" xmlns="http://www.w3.org/2000/svg">
<g clip-path="url(#clip0_1241_30)">
<path fill-rule="evenodd" clip-rule="evenodd" d="M9.57827 16.4223L4.08247 10.9013C3.14861 9.96311 1.63454 9.96311 0.700389 10.9013C-0.233463 11.8394 -0.233463 13.3604 0.700389 14.2988L7.88723 21.5187C8.82108 22.4568 10.3355 22.4568 11.2693 21.5187L18.0338 14.7229L14.652 11.3253L9.57827 16.4223Z" fill="#16B8A2"/>
<path fill-rule="evenodd" clip-rule="evenodd" d="M30.2934 5.80563L19.7254 16.4221L9.15615 5.80443C8.222 4.86599 6.70792 4.86599 5.77407 5.80443C4.84022 6.74257 4.84022 8.26359 5.77407 9.20203L18.0343 21.5185C18.9682 22.4567 20.4823 22.4567 21.4164 21.5185L33.6755 9.20323C34.6093 8.26479 34.6093 6.74377 33.6755 5.80563C32.7413 4.86749 31.2272 4.86749 30.2934 5.80563Z" fill="#FFB41F"/>
<path fill-rule="evenodd" clip-rule="evenodd" d="M38.7489 14.2999L31.5632 21.5185C30.6294 22.4567 29.1153 22.4567 28.1814 21.5185L10.8475 4.10502C9.91361 3.16688 9.91361 1.64586 10.8475 0.70772C11.7816 -0.230719 13.2957 -0.230719 14.2295 0.70772L29.8722 16.4221L35.3668 10.9023C36.3009 9.96418 37.815 9.96418 38.7489 10.9023C39.6827 11.8408 39.6827 13.3618 38.7489 14.2999Z" fill="#F56358"/>
<path fill-rule="evenodd" clip-rule="evenodd" d="M28.6019 0.708853C27.668 -0.229286 26.154 -0.229286 25.2198 0.708853L14.6518 11.3254L18.0339 14.723L28.6019 4.10645C29.5358 3.16801 29.5358 1.64699 28.6019 0.708853Z" fill="#16B8A2"/>
<path fill-rule="evenodd" clip-rule="evenodd" d="M51.8295 2.36807H48.8887V19.7222H59.6639V17.1014H51.8295V2.36807ZM66.0286 7.58612C67.8167 7.58612 69.0165 8.31806 69.6753 9.21529L69.8164 7.82223H72.3573V19.7222H69.8164L69.6753 18.3292C69.0165 19.2264 67.8167 19.9583 66.0286 19.9583C62.8054 19.9583 60.6175 17.3375 60.6175 13.7722C60.6175 10.1833 62.8054 7.58612 66.0286 7.58612ZM66.6403 10.0889C64.8052 10.0889 63.4877 11.5292 63.4877 13.7722C63.4877 16.0153 64.8052 17.4556 66.6403 17.4556C68.0519 17.4556 68.8989 16.7 69.5341 15.6847V11.8597C68.8989 10.8445 68.0519 10.0889 66.6403 10.0889ZM79.4749 3.83195H76.6517V7.82223H74.4166V10.2306H76.6517V15.5195C76.6517 18.4 78.3691 19.9583 81.0747 19.9583C82.251 19.9583 83.1215 19.6278 83.7097 19.25L82.9568 17.0306C82.6039 17.2431 82.0863 17.4083 81.3335 17.4083C80.2277 17.4083 79.4749 16.7 79.4749 15.4958V10.2306H83.0509V7.82223H79.4749V3.83195ZM89.2039 3.83195H86.3807V7.82223H84.1456V10.2306H86.3807V15.5195C86.3807 18.4 88.0981 19.9583 90.8037 19.9583C91.98 19.9583 92.8505 19.6278 93.4387 19.25L92.6858 17.0306C92.3329 17.2431 91.8154 17.4083 91.0625 17.4083C89.9567 17.4083 89.2039 16.7 89.2039 15.4958V10.2306H92.78V7.82223H89.2039V3.83195ZM98.1565 7.82223H95.3333V19.7222H98.1565V7.82223ZM96.7449 2.27362C95.7568 2.27362 95.0039 3.00556 95.0039 4.02084C95.0039 5.03612 95.7568 5.76806 96.7449 5.76806C97.7566 5.76806 98.5094 5.03612 98.5094 4.02084C98.5094 3.00556 97.7566 2.27362 96.7449 2.27362ZM106.686 7.58612C103.039 7.58612 100.616 10.1833 100.616 13.7722C100.616 17.3375 103.063 19.9583 106.709 19.9583C108.85 19.9583 110.473 18.9903 111.532 17.3375L109.509 15.7556C108.944 16.7 108.027 17.4792 106.733 17.4792C104.639 17.4792 103.486 15.85 103.486 13.7722C103.486 11.6708 104.592 10.0653 106.709 10.0653C108.027 10.0653 108.897 10.8208 109.438 11.7653L111.485 10.207C110.426 8.55418 108.85 7.58612 106.686 7.58612ZM118.438 7.58612C122.085 7.58612 123.873 10.325 123.873 13.6542V14.6458H115.497C115.568 16.5347 116.697 17.5736 118.673 17.5736C120.061 17.5736 121.073 16.9597 121.614 16.2042L123.567 17.8097C122.39 19.2264 120.838 19.9583 118.65 19.9583C114.98 19.9583 112.627 17.3611 112.627 13.7958C112.627 10.207 115.027 7.58612 118.438 7.58612ZM118.391 9.85279C116.721 9.85279 115.591 10.9625 115.497 12.6153H121.097C121.026 10.9861 120.085 9.85279 118.391 9.85279Z" fill="#0E0E29"/>
</g>
<defs>
<clipPath id="clip0_1241_30">
<rect width="124" height="22.22" fill="white"/>
</clipPath>
</defs>
</svg>
