<svg width="128" height="28" viewBox="0 0 128 28" fill="none" xmlns="http://www.w3.org/2000/svg">
<path d="M31.9124 20.3724C31.9124 20.7524 31.7618 21.1177 31.4931 21.3875L25.0669 27.8137C24.9868 27.894 24.8845 27.9487 24.7732 27.9709C24.6619 27.9931 24.5465 27.9818 24.4417 27.9383C24.3368 27.8949 24.2472 27.8212 24.1842 27.7268C24.1213 27.6324 24.0877 27.5214 24.0879 27.4079V13.02L31.8247 5.32703H31.9147L31.9124 20.3724Z" fill="#4F4F71" fill-opacity="0.6"/>
<path d="M26.7857 0.186273C26.7325 0.132914 26.6693 0.0905801 26.5996 0.0616961C26.53 0.032812 26.4553 0.0179443 26.38 0.0179443C26.3046 0.0179443 26.2299 0.032812 26.1603 0.0616961C26.0907 0.0905801 26.0274 0.132914 25.9742 0.186273L16.4197 9.74071H16.2871V20.5249L16.4197 20.8081L31.9137 5.31419L26.7857 0.186273Z" fill="#4F4F71" fill-opacity="0.6"/>
<path d="M0.923828 20.3725C0.923828 20.7547 1.07445 21.1178 1.3431 21.3876L7.7693 27.8138C7.84948 27.8941 7.9517 27.9488 8.06301 27.971C8.17433 27.9932 8.28972 27.9819 8.39458 27.9384C8.49943 27.895 8.58903 27.8213 8.65201 27.7269C8.71498 27.6325 8.74852 27.5215 8.74835 27.408V13.0201L1.01488 5.32713H0.924952L0.923828 20.3725Z" fill="#4F4F71" fill-opacity="0.6"/>
<path d="M6.86444 0.186273C6.81119 0.132914 6.74794 0.0905802 6.67831 0.0616961C6.60868 0.032812 6.53404 0.0179443 6.45866 0.0179443C6.38327 0.0179443 6.30863 0.032812 6.239 0.0616961C6.16937 0.0905802 6.10612 0.132914 6.05287 0.186273L0.923828 5.3142L16.4189 20.8092V9.74183L6.86444 0.186273Z" fill="#4F4F71" fill-opacity="0.6"/>
<path d="M41.533 20.3724V6.01822H45.3581V7.94485C46.2416 6.48358 47.5253 5.7507 49.2642 5.7507C51.0031 5.7507 52.3137 6.50044 53.2501 8.05163C54.7484 6.47346 55.8983 5.7507 57.6901 5.7507C60.9274 5.7507 62.7483 7.56942 62.7483 10.9146V20.3847H58.6287V12.5995C58.6287 10.5931 58.2015 9.68375 56.6222 9.68375C55.0171 9.68375 54.1493 10.6729 54.1493 12.5995V20.3847H49.9903V12.5995C49.9903 10.5931 49.5632 9.68375 47.9839 9.68375C46.3788 9.68375 45.511 10.6729 45.511 12.5995V20.3847L41.533 20.3724ZM67.8335 7.87853C69.9692 5.70911 73.2211 5.03468 76.0548 6.17559C77.4404 6.73298 78.6307 7.68691 79.4765 8.91783C80.3223 10.1488 80.7861 11.6019 80.8096 13.0953C80.8096 15.2624 80.0868 17.0542 78.6424 18.4997C77.2104 19.9688 75.2365 20.7815 73.1851 20.7478C70.991 20.7478 69.2262 19.998 67.7537 18.4469C66.3799 17.0277 65.6207 15.1243 65.6405 13.1492C65.6369 12.1688 65.8291 11.1976 66.2059 10.2925C66.5827 9.38745 67.1364 8.56673 67.8346 7.87853H67.8335ZM73.211 16.7338C75.0837 16.7338 76.609 15.1556 76.609 13.202C76.609 11.2215 75.0837 9.64441 73.211 9.64441C71.3383 9.64441 69.813 11.2226 69.813 13.202C69.813 15.1556 71.3642 16.7338 73.211 16.7338ZM83.7006 20.3724V6.01822H87.7135L87.6595 7.94485C88.543 6.50044 89.8795 5.7507 91.7792 5.7507C94.7489 5.7507 96.6756 7.62337 96.6756 10.9146V20.3847H92.4491V12.5995C92.4491 10.5931 92.022 9.68375 90.3887 9.68375C88.7296 9.68375 87.8484 10.6729 87.8484 12.5995V20.3847L83.7006 20.3724ZM114.787 7.87853C116.923 5.70686 120.175 5.03468 123.009 6.17447C124.394 6.73193 125.585 7.68603 126.431 8.91717C127.277 10.1483 127.74 11.6017 127.763 13.0953C127.763 15.2624 127.041 17.0542 125.596 18.4997C124.164 19.9688 122.19 20.7815 120.139 20.7478C117.945 20.7478 116.179 19.998 114.708 18.4469C113.334 17.0277 112.575 15.1243 112.594 13.1492C112.591 12.1688 112.783 11.1976 113.16 10.2925C113.537 9.38745 114.09 8.56673 114.789 7.87853H114.787ZM120.165 16.7338C122.038 16.7338 123.563 15.1556 123.563 13.202C123.563 11.2215 122.038 9.64441 120.165 9.64441C118.292 9.64441 116.767 11.2226 116.767 13.202C116.767 15.1556 118.318 16.7338 120.165 16.7338ZM99.8645 20.3724V17.3756L105.777 9.72422H99.8645V6.01822H110.54V9.41623L105.324 16.6664H110.648V20.3847L99.8645 20.3724Z" fill="#4F4F71" fill-opacity="0.6"/>
</svg>
