<svg width="92" height="32" viewBox="0 0 92 32" fill="none" xmlns="http://www.w3.org/2000/svg">
<path d="M82.7061 13.1329C83.8078 13.1329 84.7011 12.2551 84.7011 11.1723C84.7011 10.0895 83.8078 9.21169 82.7061 9.21169C81.6043 9.21169 80.711 10.0895 80.711 11.1723C80.711 12.2551 81.6043 13.1329 82.7061 13.1329Z" fill="#4F4F71" fill-opacity="0.6"/>
<path d="M54.2086 19.5327C55.1873 19.5327 55.7521 18.8114 55.7144 18.1085C55.6956 17.7386 55.6579 17.4981 55.6203 17.3131C55.018 14.7606 52.9099 12.874 50.4066 12.874C47.4327 12.874 45.0234 15.519 45.0234 18.7743C45.0234 22.0297 47.4327 24.6747 50.4066 24.6747C52.2699 24.6747 53.6063 24.0088 54.5663 22.9546C55.0368 22.4366 54.9427 21.6413 54.378 21.2529C53.9074 20.9384 53.324 21.0494 52.8911 21.4009C52.477 21.7523 51.6865 22.4551 50.4066 22.4551C48.9008 22.4551 47.6209 21.1789 47.3385 19.4957H54.2086V19.5327ZM50.3877 15.1121C51.7429 15.1121 52.9099 16.1479 53.3428 17.5721H47.4327C47.8656 16.1294 49.0325 15.1121 50.3877 15.1121Z" fill="#4F4F71" fill-opacity="0.6"/>
<path d="M45.1374 14.0391C45.1374 13.4842 44.7233 13.0403 44.1963 12.9479C42.5587 12.7074 41.0154 13.2992 40.1307 14.3905V14.2426C40.1307 13.5582 39.566 13.1328 39.0014 13.1328C38.3803 13.1328 37.8721 13.6322 37.8721 14.2426V23.3058C37.8721 23.8977 38.3238 24.4156 38.9261 24.4526C39.5849 24.4896 40.1307 23.9902 40.1307 23.3428V18.6632C40.1307 16.5916 41.7118 14.89 43.8952 15.1304C43.9705 15.1304 44.0458 15.1304 44.121 15.1304C44.6857 15.0934 45.1374 14.6125 45.1374 14.0391Z" fill="#4F4F71" fill-opacity="0.6"/>
<path d="M83.8368 15.2231C83.8368 14.6127 83.3282 14.1133 82.7071 14.1133C82.086 14.1133 81.5781 14.6127 81.5781 15.2231C81.5781 15.2601 81.5781 22.9916 81.5781 23.343C81.5781 23.9534 82.086 24.4528 82.7071 24.4528C83.3282 24.4528 83.8368 23.9534 83.8368 23.343C83.8368 23.01 83.8368 15.2786 83.8368 15.2231Z" fill="#4F4F71" fill-opacity="0.6"/>
<path d="M67.0451 9.08243C67.0451 8.47203 66.5368 7.97266 65.9158 7.97266C65.2946 7.97266 64.7864 8.47203 64.7864 9.08243V14.021C64.0147 13.2626 63.0548 12.8926 61.9066 12.8926C58.9327 12.8926 56.5234 15.5376 56.5234 18.793C56.5234 22.0484 58.9327 24.6934 61.9066 24.6934C63.0548 24.6934 64.0335 24.305 64.8052 23.5466C64.8993 24.0645 65.3699 24.4529 65.9158 24.4529C66.5368 24.4529 67.0451 23.9535 67.0451 23.3432V9.08243ZM61.9255 22.4923C60.1938 22.4923 58.8009 20.8461 58.8009 18.793C58.8009 16.7584 60.1938 15.0937 61.9255 15.0937C63.6571 15.0937 65.0499 16.7399 65.0499 18.793C65.0499 20.8461 63.6383 22.4923 61.9255 22.4923Z" fill="#4F4F71" fill-opacity="0.6"/>
<path d="M78.8294 9.08252C78.8294 8.47212 78.3215 7.97275 77.7005 7.97275C77.0794 7.97275 76.5708 8.47212 76.5708 9.08252V14.0211C75.7992 13.2627 74.8393 12.8927 73.691 12.8927C70.7172 12.8927 68.308 15.5377 68.308 18.7931C68.308 22.0485 70.7172 24.6934 73.691 24.6934C74.8393 24.6934 75.8179 24.305 76.5894 23.5467C76.6839 24.0646 77.1546 24.453 77.7005 24.453C78.3215 24.453 78.8294 23.9536 78.8294 23.3433V9.08252ZM73.691 22.4924C71.9596 22.4924 70.5666 20.8462 70.5666 18.7931C70.5666 16.7585 71.9596 15.0938 73.691 15.0938C75.4224 15.0938 76.8158 16.74 76.8158 18.7931C76.8158 20.8462 75.4224 22.4924 73.691 22.4924Z" fill="#4F4F71" fill-opacity="0.6"/>
<path d="M89.5561 23.3616V15.1122H90.554C91.0813 15.1122 91.5519 14.7238 91.5891 14.1874C91.6271 13.614 91.1565 13.1331 90.592 13.1331H89.5561V11.5794C89.5561 10.9875 89.1048 10.4697 88.5024 10.4326C87.8433 10.3957 87.2975 10.895 87.2975 11.5424V13.1516H86.3569C85.8297 13.1516 85.359 13.54 85.3218 14.0764C85.2838 14.6498 85.7545 15.1308 86.3189 15.1308H87.2788V23.3801C87.2788 23.9905 87.7875 24.4899 88.4085 24.4899C89.0669 24.4529 89.5561 23.972 89.5561 23.3616Z" fill="#4F4F71" fill-opacity="0.6"/>
<path d="M12.1592 15.9999C11.2557 15.9999 10.5217 16.7212 10.5217 17.6091C10.5217 18.4969 11.2557 19.2368 12.1592 19.2183C13.0626 19.2183 13.7967 18.4969 13.7967 17.6091C13.7967 16.7212 13.0626 15.9999 12.1592 15.9999Z" fill="#4F4F71" fill-opacity="0.6"/>
<path d="M15.7918 23.0655C16.413 23.0655 18.5587 22.9915 19.6881 21.8818C19.8386 21.7153 19.8386 21.4563 19.6881 21.2898C19.5186 21.1234 19.2551 21.1234 19.0857 21.2898C18.3893 21.9927 16.8647 22.2332 15.7918 22.2332C14.719 22.2332 13.2132 21.9927 12.4979 21.2898C12.3286 21.1234 12.065 21.1234 11.8956 21.2898C11.7262 21.4563 11.7262 21.7153 11.8956 21.8818C13.0061 22.9731 15.1519 23.0655 15.7918 23.0655Z" fill="#4F4F71" fill-opacity="0.6"/>
<path d="M17.7493 17.6276C17.7493 18.5154 18.4834 19.2368 19.3869 19.2368C20.2904 19.2368 21.0244 18.4969 21.0244 17.6276C21.0244 16.7398 20.2904 16.0184 19.3869 16.0184C18.4834 16.0184 17.7493 16.7398 17.7493 17.6276Z" fill="#4F4F71" fill-opacity="0.6"/>
<path fill-rule="evenodd" clip-rule="evenodd" d="M31.5459 16C31.5459 24.5604 24.4842 31.5 15.773 31.5C7.0618 31.5 0 24.5604 0 16C0 7.43958 7.0618 0.5 15.773 0.5C24.4842 0.5 31.5459 7.43958 31.5459 16ZM23.9983 13.7433C25.2594 13.7433 26.2946 14.7422 26.2946 15.9999C26.2946 16.9247 25.7299 17.72 24.9394 18.0715C24.977 18.2935 24.9959 18.5339 24.9959 18.7559C24.9959 22.2517 20.8738 25.0631 15.7918 25.0631C10.7098 25.0631 6.5878 22.2332 6.5878 18.7559C6.5878 18.5154 6.60662 18.2935 6.64426 18.0715C5.85373 17.72 5.28906 16.9432 5.28906 16.0184C5.28906 14.7791 6.30546 13.7618 7.5854 13.7618C8.20648 13.7618 8.77118 14.0023 9.18523 14.3907C10.7851 13.2625 12.9874 12.5411 15.4342 12.4671L16.6012 7.0661C16.62 6.95512 16.6765 6.86264 16.7706 6.80715C16.8458 6.75166 16.9588 6.73317 17.0717 6.75166L20.8927 7.54701C21.1562 7.01061 21.7209 6.64069 22.3608 6.64069C23.2642 6.64069 23.9983 7.36205 23.9983 8.24991C23.9983 9.13776 23.2642 9.85906 22.3608 9.85906C21.4761 9.85906 20.7609 9.17472 20.7233 8.32391L17.2976 7.6025L16.2435 12.4486C18.6528 12.5411 20.8174 13.2625 22.3985 14.3722C22.8125 13.9838 23.3772 13.7433 23.9983 13.7433Z" fill="#4F4F71" fill-opacity="0.6"/>
</svg>
