<svg width="96" height="24" viewBox="0 0 96 24" fill="none" xmlns="http://www.w3.org/2000/svg">
<path d="M30.9277 18.8976L32.1124 16.1461C33.393 17.1015 35.0936 17.5983 36.775 17.5983C38.0173 17.5983 38.8004 17.1206 38.8004 16.3945C38.7812 14.369 31.3676 15.955 31.3101 10.8723C31.2909 8.2927 33.5842 6.30542 36.8326 6.30542C38.762 6.30542 40.6922 6.78312 42.068 7.87235L40.9601 10.6812C39.6987 9.87868 38.1317 9.30539 36.6414 9.30539C35.6287 9.30539 34.96 9.7831 34.96 10.3945C34.9792 12.3818 42.4503 11.2927 42.5264 16.1461C42.5264 18.783 40.2906 20.6365 37.0806 20.6365C34.7305 20.6365 32.5715 20.0824 30.9277 18.8976Z" fill="#4F4F71" fill-opacity="0.6"/>
<path d="M76.3824 15.1525C75.7904 16.1844 74.6818 16.8913 73.4019 16.8913C71.5101 16.8913 69.9815 15.3627 69.9815 13.471C69.9815 11.5793 71.5101 10.0507 73.4019 10.0507C74.6818 10.0507 75.7904 10.7576 76.3824 11.7895L79.65 9.97419C78.427 7.79588 76.0768 6.30542 73.4019 6.30542C69.4464 6.30542 66.2363 9.5156 66.2363 13.471C66.2363 17.4264 69.4464 20.6365 73.4019 20.6365C76.096 20.6365 78.427 19.1652 79.65 16.9678L76.3824 15.1525Z" fill="#4F4F71" fill-opacity="0.6"/>
<path d="M48.259 0.363281H44.1699V20.3695H48.259V0.363281Z" fill="#4F4F71" fill-opacity="0.6"/>
<path d="M81.2559 0.363281V20.3695H85.345V14.3695L90.1981 20.3695H95.4335L89.2622 13.2421L94.9751 6.59256H89.9685L85.345 12.1147V0.363281H81.2559Z" fill="#4F4F71" fill-opacity="0.6"/>
<path d="M60.41 15.1907C59.818 16.1652 58.5949 16.8913 57.2191 16.8913C55.3273 16.8913 53.7987 15.3627 53.7987 13.471C53.7987 11.5793 55.3273 10.0507 57.2191 10.0507C58.5949 10.0507 59.818 10.815 60.41 11.8085V15.1907ZM60.41 6.5921V8.21624C59.7412 7.08885 58.079 6.30542 56.34 6.30542C52.7476 6.30542 49.9199 9.47737 49.9199 13.4519C49.9199 17.4264 52.7476 20.6365 56.34 20.6365C58.079 20.6365 59.7412 19.8531 60.41 18.7257V20.3499H64.4991V6.5921H60.41Z" fill="#4F4F71" fill-opacity="0.6"/>
<path d="M5.64387 15.1719C5.64387 16.5668 4.51675 17.6942 3.12173 17.6942C1.72671 17.6942 0.599609 16.5668 0.599609 15.1719C0.599609 13.777 1.72671 12.6497 3.12173 12.6497H5.64387V15.1719Z" fill="#4F4F71" fill-opacity="0.6"/>
<path d="M6.90486 15.172C6.90486 13.7772 8.03196 12.6498 9.42698 12.6498C10.822 12.6498 11.9491 13.7772 11.9491 15.172V21.4777C11.9491 22.8726 10.822 24 9.42698 24C8.03196 24 6.90486 22.8726 6.90486 21.4777V15.172Z" fill="#4F4F71" fill-opacity="0.6"/>
<path d="M9.42698 5.04454C8.03196 5.04454 6.90486 3.91715 6.90486 2.52227C6.90486 1.12737 8.03196 0 9.42698 0C10.822 0 11.9491 1.12737 11.9491 2.52227V5.04454H9.42698Z" fill="#4F4F71" fill-opacity="0.6"/>
<path d="M9.42707 6.32457C10.8221 6.32457 11.9492 7.45189 11.9492 8.84684C11.9492 10.2417 10.8221 11.3691 9.42707 11.3691H3.1022C1.70789 11.3691 0.580078 10.2417 0.580078 8.84684C0.580078 7.45189 1.70789 6.32457 3.1022 6.32457H9.42707Z" fill="#4F4F71" fill-opacity="0.6"/>
<path d="M19.5371 8.84673C19.5371 7.45185 20.6642 6.32446 22.0592 6.32446C23.4543 6.32446 24.5814 7.45185 24.5814 8.84673C24.5814 10.2416 23.4543 11.369 22.0592 11.369H19.5371V8.84673Z" fill="#4F4F71" fill-opacity="0.6"/>
<path d="M18.2764 8.84705C18.2764 10.2419 17.1493 11.3693 15.7543 11.3693C14.3593 11.3693 13.2322 10.2419 13.2322 8.84705V2.52227C13.2322 1.12737 14.3593 0 15.7543 0C17.1493 0 18.2764 1.12737 18.2764 2.52227V8.84705Z" fill="#4F4F71" fill-opacity="0.6"/>
<path d="M15.7543 18.9555C17.1493 18.9555 18.2764 20.0829 18.2764 21.4778C18.2764 22.8727 17.1493 24 15.7543 24C14.3593 24 13.2322 22.8727 13.2322 21.4778V18.9555H15.7543Z" fill="#4F4F71" fill-opacity="0.6"/>
<path d="M15.7543 17.6943C14.3593 17.6943 13.2322 16.5669 13.2322 15.172C13.2322 13.7772 14.3593 12.6498 15.7543 12.6498H22.0791C23.4742 12.6498 24.6013 13.7772 24.6013 15.172C24.6013 16.5669 23.4742 17.6943 22.0791 17.6943H15.7543Z" fill="#4F4F71" fill-opacity="0.6"/>
</svg>
