<svg width="149" height="18" viewBox="0 0 149 18" fill="none" xmlns="http://www.w3.org/2000/svg">
<path d="M12.1592 10.1556C12.4059 9.88424 12.5787 9.66218 12.776 9.44011C14.824 6.97274 16.8719 4.4807 18.9198 1.98866C19.6847 1.07573 20.647 0.754974 21.7819 1.07573C22.9169 1.39649 23.5585 2.21072 23.7312 3.37039C23.8299 4.08592 23.6325 4.80146 23.1637 5.34428C20.2275 8.92196 17.2913 12.4997 14.3305 16.028C13.3435 17.237 11.567 17.385 10.358 16.3981C10.2347 16.2994 10.1113 16.176 9.98792 16.028C7.02708 12.4997 4.06623 8.92196 1.15474 5.34428C0.217137 4.23396 0.365178 2.58083 1.47549 1.64323C1.50017 1.61855 1.52484 1.59388 1.57419 1.56921C2.73385 0.631605 4.38699 0.754973 5.39861 1.98866C7.4712 4.4807 9.51912 6.99742 11.5917 9.48946C11.7398 9.68685 11.9125 9.88424 12.1592 10.1556ZM13.2695 13.758C13.2695 13.1165 12.7514 12.5737 12.0852 12.5737C11.4437 12.5737 10.9255 13.0672 10.9008 13.7087V13.7333C10.9008 14.3749 11.419 14.9177 12.0852 14.9177C12.7514 14.9177 13.2695 14.3995 13.2695 13.758ZM22.1521 3.64179C22.1521 3.00028 21.6092 2.48213 20.9677 2.50681C20.3262 2.53148 19.8081 3.04963 19.8327 3.69114C19.8327 4.33266 20.3755 4.82614 20.9924 4.82614H21.0171C21.6586 4.82614 22.1521 4.30799 22.1521 3.66647V3.64179ZM3.3507 2.50681C2.70918 2.48213 2.16636 3.00028 2.16636 3.64179C2.14169 4.28331 2.65983 4.80146 3.27667 4.82614H3.30135C3.94286 4.85081 4.48569 4.35733 4.48569 3.71582V3.69114C4.51036 3.04963 3.99221 2.50681 3.3507 2.50681ZM72.7085 8.20643V15.8553H70.2904V3.83918C71.5241 3.44441 72.289 3.66647 73.0539 4.67809L77.8653 10.7478C78.0133 10.9205 78.1613 11.1179 78.4081 11.4387V3.76516H80.8261V15.8553C79.6911 16.0033 78.7535 16.0033 77.964 14.893C76.4835 12.8204 74.8057 10.8712 73.2266 8.84795C73.1032 8.67523 72.9552 8.52719 72.7085 8.20643ZM146.187 11.3893V3.74049H148.58V15.7813C147.272 16.1514 146.582 15.9293 145.792 14.9177L140.956 8.7986C140.833 8.65055 140.684 8.50251 140.438 8.20643V15.8553H138.02V3.76516C139.13 3.61712 140.068 3.59245 140.882 4.70277C142.387 6.80003 144.065 8.77392 145.669 10.7972C145.767 10.9452 145.915 11.1179 146.187 11.3893ZM117.467 9.76088C117.491 6.15852 120.131 3.56777 123.808 3.59245C127.484 3.59245 130.149 6.23254 130.124 9.85957C130.099 13.4619 127.459 16.0527 123.783 16.028C120.082 16.0033 117.467 13.4126 117.467 9.76088ZM127.262 9.76088C127.213 9.3661 127.188 8.89729 127.065 8.42849C126.695 6.84937 125.56 5.96112 123.882 5.91178C122.253 5.86243 120.995 6.65198 120.575 8.18175C120.378 8.99599 120.304 9.85957 120.403 10.6985C120.575 12.5737 121.834 13.6593 123.66 13.7087C125.535 13.758 126.769 12.7711 127.114 10.8959C127.213 10.5504 127.237 10.1803 127.262 9.76088ZM59.8781 8.74925V10.7725H56.1277V13.7333H61.0871C61.0871 14.4242 61.1118 14.9917 61.0625 15.5839C61.0131 15.7319 60.8898 15.8306 60.7417 15.8799C58.2743 15.9046 55.807 15.9046 53.2903 15.9046V3.76516C53.5123 3.74049 53.685 3.71582 53.8824 3.71582C56.0784 3.71582 58.2743 3.71582 60.4703 3.71582C60.9391 3.71582 61.1365 3.81451 61.1118 4.30799C61.0625 4.80146 61.1118 5.27026 61.1118 5.86243H58.9652C58.151 5.86243 57.3367 5.83775 56.5472 5.8871C56.3498 5.93645 56.2018 6.05982 56.1277 6.25721C56.0784 6.94807 56.1277 7.66361 56.1031 8.35447C56.1031 8.77392 56.3745 8.74925 56.6706 8.74925H59.8781ZM33.2799 3.71582C34.1681 3.71582 34.9577 3.6418 35.7226 3.74049C36.0187 3.78984 36.3888 4.15995 36.4875 4.45603C37.4251 6.99742 38.338 9.53881 39.2509 12.0802C39.3003 12.2282 39.3743 12.3763 39.4483 12.5737C40.3119 10.1803 41.1261 7.83632 41.965 5.49232C42.6559 3.5431 42.5079 3.66647 44.5064 3.66647H45.5674C45.4687 3.96255 45.3947 4.15994 45.3207 4.35733C43.8649 7.98436 42.4092 11.6361 40.9534 15.2878C40.7807 15.7072 40.608 15.9046 40.1392 15.8799C39.4977 15.8306 38.7081 16.0773 38.264 15.7566C37.8199 15.4605 37.6965 14.6463 37.4497 14.0788C36.068 10.6985 34.711 7.26883 33.2799 3.71582ZM95.3589 15.8553H92.5708V5.96112H89.1658V3.76516H98.7392V5.91178H95.3589V15.8553ZM106.413 3.74049H109.127V15.8553H106.413V3.74049Z" fill="#4F4F71" fill-opacity="0.6"/>
</svg>
